<?xml version="1.0" encoding="utf-8"?>
<svg xmlns="http://www.w3.org/2000/svg" xmlns:xlink="http://www.w3.org/1999/xlink" width="600" height="400" viewBox="0 0 2400 1600">
<defs>
  <clipPath id="clip380">
    <rect x="0" y="0" width="2400" height="1600"/>
  </clipPath>
</defs>
<path clip-path="url(#clip380)" d="M0 1600 L2400 1600 L2400 0 L0 0  Z" fill="#ffffff" fill-rule="evenodd" fill-opacity="1"/>
<defs>
  <clipPath id="clip381">
    <rect x="480" y="0" width="1681" height="1600"/>
  </clipPath>
</defs>
<path clip-path="url(#clip380)" d="M262.551 1423.18 L2352.76 1423.18 L2352.76 47.2441 L262.551 47.2441  Z" fill="#ffffff" fill-rule="evenodd" fill-opacity="1"/>
<defs>
  <clipPath id="clip382">
    <rect x="262" y="47" width="2091" height="1377"/>
  </clipPath>
</defs>
<polyline clip-path="url(#clip382)" style="stroke:#000000; stroke-linecap:round; stroke-linejoin:round; stroke-width:2; stroke-opacity:0.1; fill:none" points="321.708,1423.18 321.708,47.2441 "/>
<polyline clip-path="url(#clip382)" style="stroke:#000000; stroke-linecap:round; stroke-linejoin:round; stroke-width:2; stroke-opacity:0.1; fill:none" points="568.194,1423.18 568.194,47.2441 "/>
<polyline clip-path="url(#clip382)" style="stroke:#000000; stroke-linecap:round; stroke-linejoin:round; stroke-width:2; stroke-opacity:0.1; fill:none" points="814.681,1423.18 814.681,47.2441 "/>
<polyline clip-path="url(#clip382)" style="stroke:#000000; stroke-linecap:round; stroke-linejoin:round; stroke-width:2; stroke-opacity:0.1; fill:none" points="1061.17,1423.18 1061.17,47.2441 "/>
<polyline clip-path="url(#clip382)" style="stroke:#000000; stroke-linecap:round; stroke-linejoin:round; stroke-width:2; stroke-opacity:0.1; fill:none" points="1307.65,1423.18 1307.65,47.2441 "/>
<polyline clip-path="url(#clip382)" style="stroke:#000000; stroke-linecap:round; stroke-linejoin:round; stroke-width:2; stroke-opacity:0.1; fill:none" points="1554.14,1423.18 1554.14,47.2441 "/>
<polyline clip-path="url(#clip382)" style="stroke:#000000; stroke-linecap:round; stroke-linejoin:round; stroke-width:2; stroke-opacity:0.1; fill:none" points="1800.63,1423.18 1800.63,47.2441 "/>
<polyline clip-path="url(#clip382)" style="stroke:#000000; stroke-linecap:round; stroke-linejoin:round; stroke-width:2; stroke-opacity:0.1; fill:none" points="2047.11,1423.18 2047.11,47.2441 "/>
<polyline clip-path="url(#clip382)" style="stroke:#000000; stroke-linecap:round; stroke-linejoin:round; stroke-width:2; stroke-opacity:0.1; fill:none" points="2293.6,1423.18 2293.6,47.2441 "/>
<polyline clip-path="url(#clip380)" style="stroke:#000000; stroke-linecap:round; stroke-linejoin:round; stroke-width:4; stroke-opacity:1; fill:none" points="262.551,1423.18 2352.76,1423.18 "/>
<polyline clip-path="url(#clip380)" style="stroke:#000000; stroke-linecap:round; stroke-linejoin:round; stroke-width:4; stroke-opacity:1; fill:none" points="321.708,1423.18 321.708,1404.28 "/>
<polyline clip-path="url(#clip380)" style="stroke:#000000; stroke-linecap:round; stroke-linejoin:round; stroke-width:4; stroke-opacity:1; fill:none" points="568.194,1423.18 568.194,1404.28 "/>
<polyline clip-path="url(#clip380)" style="stroke:#000000; stroke-linecap:round; stroke-linejoin:round; stroke-width:4; stroke-opacity:1; fill:none" points="814.681,1423.18 814.681,1404.28 "/>
<polyline clip-path="url(#clip380)" style="stroke:#000000; stroke-linecap:round; stroke-linejoin:round; stroke-width:4; stroke-opacity:1; fill:none" points="1061.17,1423.18 1061.17,1404.28 "/>
<polyline clip-path="url(#clip380)" style="stroke:#000000; stroke-linecap:round; stroke-linejoin:round; stroke-width:4; stroke-opacity:1; fill:none" points="1307.65,1423.18 1307.65,1404.28 "/>
<polyline clip-path="url(#clip380)" style="stroke:#000000; stroke-linecap:round; stroke-linejoin:round; stroke-width:4; stroke-opacity:1; fill:none" points="1554.14,1423.18 1554.14,1404.28 "/>
<polyline clip-path="url(#clip380)" style="stroke:#000000; stroke-linecap:round; stroke-linejoin:round; stroke-width:4; stroke-opacity:1; fill:none" points="1800.63,1423.18 1800.63,1404.28 "/>
<polyline clip-path="url(#clip380)" style="stroke:#000000; stroke-linecap:round; stroke-linejoin:round; stroke-width:4; stroke-opacity:1; fill:none" points="2047.11,1423.18 2047.11,1404.28 "/>
<polyline clip-path="url(#clip380)" style="stroke:#000000; stroke-linecap:round; stroke-linejoin:round; stroke-width:4; stroke-opacity:1; fill:none" points="2293.6,1423.18 2293.6,1404.28 "/>
<path clip-path="url(#clip380)" d="M316.361 1481.64 L332.68 1481.64 L332.68 1485.58 L310.736 1485.58 L310.736 1481.64 Q313.398 1478.89 317.981 1474.26 Q322.588 1469.61 323.768 1468.27 Q326.013 1465.74 326.893 1464.01 Q327.796 1462.25 327.796 1460.56 Q327.796 1457.8 325.851 1456.07 Q323.93 1454.33 320.828 1454.33 Q318.629 1454.33 316.176 1455.09 Q313.745 1455.86 310.967 1457.41 L310.967 1452.69 Q313.791 1451.55 316.245 1450.97 Q318.699 1450.39 320.736 1450.39 Q326.106 1450.39 329.301 1453.08 Q332.495 1455.77 332.495 1460.26 Q332.495 1462.39 331.685 1464.31 Q330.898 1466.2 328.791 1468.8 Q328.213 1469.47 325.111 1472.69 Q322.009 1475.88 316.361 1481.64 Z" fill="#000000" fill-rule="nonzero" fill-opacity="1" /><path clip-path="url(#clip380)" d="M571.204 1455.09 L559.398 1473.54 L571.204 1473.54 L571.204 1455.09 M569.977 1451.02 L575.856 1451.02 L575.856 1473.54 L580.787 1473.54 L580.787 1477.43 L575.856 1477.43 L575.856 1485.58 L571.204 1485.58 L571.204 1477.43 L555.602 1477.43 L555.602 1472.92 L569.977 1451.02 Z" fill="#000000" fill-rule="nonzero" fill-opacity="1" /><path clip-path="url(#clip380)" d="M815.086 1466.44 Q811.938 1466.44 810.086 1468.59 Q808.257 1470.74 808.257 1474.49 Q808.257 1478.22 810.086 1480.39 Q811.938 1482.55 815.086 1482.55 Q818.234 1482.55 820.063 1480.39 Q821.915 1478.22 821.915 1474.49 Q821.915 1470.74 820.063 1468.59 Q818.234 1466.44 815.086 1466.44 M824.368 1451.78 L824.368 1456.04 Q822.609 1455.21 820.803 1454.77 Q819.021 1454.33 817.262 1454.33 Q812.632 1454.33 810.178 1457.45 Q807.748 1460.58 807.401 1466.9 Q808.766 1464.89 810.827 1463.82 Q812.887 1462.73 815.364 1462.73 Q820.572 1462.73 823.581 1465.9 Q826.614 1469.05 826.614 1474.49 Q826.614 1479.82 823.465 1483.03 Q820.317 1486.25 815.086 1486.25 Q809.091 1486.25 805.919 1481.67 Q802.748 1477.06 802.748 1468.33 Q802.748 1460.14 806.637 1455.28 Q810.526 1450.39 817.077 1450.39 Q818.836 1450.39 820.618 1450.74 Q822.424 1451.09 824.368 1451.78 Z" fill="#000000" fill-rule="nonzero" fill-opacity="1" /><path clip-path="url(#clip380)" d="M1061.17 1469.17 Q1057.83 1469.17 1055.91 1470.95 Q1054.01 1472.73 1054.01 1475.86 Q1054.01 1478.98 1055.91 1480.77 Q1057.83 1482.55 1061.17 1482.55 Q1064.5 1482.55 1066.42 1480.77 Q1068.34 1478.96 1068.34 1475.86 Q1068.34 1472.73 1066.42 1470.95 Q1064.52 1469.17 1061.17 1469.17 M1056.49 1467.18 Q1053.48 1466.44 1051.79 1464.38 Q1050.13 1462.32 1050.13 1459.35 Q1050.13 1455.21 1053.07 1452.8 Q1056.03 1450.39 1061.17 1450.39 Q1066.33 1450.39 1069.27 1452.8 Q1072.21 1455.21 1072.21 1459.35 Q1072.21 1462.32 1070.52 1464.38 Q1068.85 1466.44 1065.87 1467.18 Q1069.25 1467.96 1071.12 1470.26 Q1073.02 1472.55 1073.02 1475.86 Q1073.02 1480.88 1069.94 1483.57 Q1066.88 1486.25 1061.17 1486.25 Q1055.45 1486.25 1052.37 1483.57 Q1049.32 1480.88 1049.32 1475.86 Q1049.32 1472.55 1051.21 1470.26 Q1053.11 1467.96 1056.49 1467.18 M1054.78 1459.79 Q1054.78 1462.48 1056.44 1463.98 Q1058.13 1465.49 1061.17 1465.49 Q1064.18 1465.49 1065.87 1463.98 Q1067.58 1462.48 1067.58 1459.79 Q1067.58 1457.11 1065.87 1455.6 Q1064.18 1454.1 1061.17 1454.1 Q1058.13 1454.1 1056.44 1455.6 Q1054.78 1457.11 1054.78 1459.79 Z" fill="#000000" fill-rule="nonzero" fill-opacity="1" /><path clip-path="url(#clip380)" d="M1282.34 1481.64 L1289.98 1481.64 L1289.98 1455.28 L1281.67 1456.95 L1281.67 1452.69 L1289.93 1451.02 L1294.61 1451.02 L1294.61 1481.64 L1302.25 1481.64 L1302.25 1485.58 L1282.34 1485.58 L1282.34 1481.64 Z" fill="#000000" fill-rule="nonzero" fill-opacity="1" /><path clip-path="url(#clip380)" d="M1321.69 1454.1 Q1318.08 1454.1 1316.25 1457.66 Q1314.45 1461.2 1314.45 1468.33 Q1314.45 1475.44 1316.25 1479.01 Q1318.08 1482.55 1321.69 1482.55 Q1325.33 1482.55 1327.13 1479.01 Q1328.96 1475.44 1328.96 1468.33 Q1328.96 1461.2 1327.13 1457.66 Q1325.33 1454.1 1321.69 1454.1 M1321.69 1450.39 Q1327.5 1450.39 1330.56 1455 Q1333.64 1459.58 1333.64 1468.33 Q1333.64 1477.06 1330.56 1481.67 Q1327.5 1486.25 1321.69 1486.25 Q1315.88 1486.25 1312.8 1481.67 Q1309.75 1477.06 1309.75 1468.33 Q1309.75 1459.58 1312.8 1455 Q1315.88 1450.39 1321.69 1450.39 Z" fill="#000000" fill-rule="nonzero" fill-opacity="1" /><path clip-path="url(#clip380)" d="M1529.63 1481.64 L1537.27 1481.64 L1537.27 1455.28 L1528.95 1456.95 L1528.95 1452.69 L1537.22 1451.02 L1541.89 1451.02 L1541.89 1481.64 L1549.53 1481.64 L1549.53 1485.58 L1529.63 1485.58 L1529.63 1481.64 Z" fill="#000000" fill-rule="nonzero" fill-opacity="1" /><path clip-path="url(#clip380)" d="M1563.01 1481.64 L1579.33 1481.64 L1579.33 1485.58 L1557.38 1485.58 L1557.38 1481.64 Q1560.04 1478.89 1564.63 1474.26 Q1569.23 1469.61 1570.41 1468.27 Q1572.66 1465.74 1573.54 1464.01 Q1574.44 1462.25 1574.44 1460.56 Q1574.44 1457.8 1572.5 1456.07 Q1570.58 1454.33 1567.47 1454.33 Q1565.27 1454.33 1562.82 1455.09 Q1560.39 1455.86 1557.61 1457.41 L1557.61 1452.69 Q1560.44 1451.55 1562.89 1450.97 Q1565.34 1450.39 1567.38 1450.39 Q1572.75 1450.39 1575.95 1453.08 Q1579.14 1455.77 1579.14 1460.26 Q1579.14 1462.39 1578.33 1464.31 Q1577.54 1466.2 1575.44 1468.8 Q1574.86 1469.47 1571.76 1472.69 Q1568.65 1475.88 1563.01 1481.64 Z" fill="#000000" fill-rule="nonzero" fill-opacity="1" /><path clip-path="url(#clip380)" d="M1775.07 1481.64 L1782.71 1481.64 L1782.71 1455.28 L1774.4 1456.95 L1774.4 1452.69 L1782.66 1451.02 L1787.34 1451.02 L1787.34 1481.64 L1794.98 1481.64 L1794.98 1485.58 L1775.07 1485.58 L1775.07 1481.64 Z" fill="#000000" fill-rule="nonzero" fill-opacity="1" /><path clip-path="url(#clip380)" d="M1817.27 1455.09 L1805.46 1473.54 L1817.27 1473.54 L1817.27 1455.09 M1816.04 1451.02 L1821.92 1451.02 L1821.92 1473.54 L1826.85 1473.54 L1826.85 1477.43 L1821.92 1477.43 L1821.92 1485.58 L1817.27 1485.58 L1817.27 1477.43 L1801.67 1477.43 L1801.67 1472.92 L1816.04 1451.02 Z" fill="#000000" fill-rule="nonzero" fill-opacity="1" /><path clip-path="url(#clip380)" d="M2021.72 1481.64 L2029.36 1481.64 L2029.36 1455.28 L2021.05 1456.95 L2021.05 1452.69 L2029.31 1451.02 L2033.99 1451.02 L2033.99 1481.64 L2041.63 1481.64 L2041.63 1485.58 L2021.72 1485.58 L2021.72 1481.64 Z" fill="#000000" fill-rule="nonzero" fill-opacity="1" /><path clip-path="url(#clip380)" d="M2061.65 1466.44 Q2058.5 1466.44 2056.65 1468.59 Q2054.82 1470.74 2054.82 1474.49 Q2054.82 1478.22 2056.65 1480.39 Q2058.5 1482.55 2061.65 1482.55 Q2064.8 1482.55 2066.63 1480.39 Q2068.48 1478.22 2068.48 1474.49 Q2068.48 1470.74 2066.63 1468.59 Q2064.8 1466.44 2061.65 1466.44 M2070.93 1451.78 L2070.93 1456.04 Q2069.17 1455.21 2067.37 1454.77 Q2065.58 1454.33 2063.83 1454.33 Q2059.2 1454.33 2056.74 1457.45 Q2054.31 1460.58 2053.96 1466.9 Q2055.33 1464.89 2057.39 1463.82 Q2059.45 1462.73 2061.93 1462.73 Q2067.14 1462.73 2070.15 1465.9 Q2073.18 1469.05 2073.18 1474.49 Q2073.18 1479.82 2070.03 1483.03 Q2066.88 1486.25 2061.65 1486.25 Q2055.65 1486.25 2052.48 1481.67 Q2049.31 1477.06 2049.31 1468.33 Q2049.31 1460.14 2053.2 1455.28 Q2057.09 1450.39 2063.64 1450.39 Q2065.4 1450.39 2067.18 1450.74 Q2068.99 1451.09 2070.93 1451.78 Z" fill="#000000" fill-rule="nonzero" fill-opacity="1" /><path clip-path="url(#clip380)" d="M2268.33 1481.64 L2275.97 1481.64 L2275.97 1455.28 L2267.66 1456.95 L2267.66 1452.69 L2275.93 1451.02 L2280.6 1451.02 L2280.6 1481.64 L2288.24 1481.64 L2288.24 1485.58 L2268.33 1485.58 L2268.33 1481.64 Z" fill="#000000" fill-rule="nonzero" fill-opacity="1" /><path clip-path="url(#clip380)" d="M2307.68 1469.17 Q2304.35 1469.17 2302.43 1470.95 Q2300.53 1472.73 2300.53 1475.86 Q2300.53 1478.98 2302.43 1480.77 Q2304.35 1482.55 2307.68 1482.55 Q2311.02 1482.55 2312.94 1480.77 Q2314.86 1478.96 2314.86 1475.86 Q2314.86 1472.73 2312.94 1470.95 Q2311.04 1469.17 2307.68 1469.17 M2303.01 1467.18 Q2300 1466.44 2298.31 1464.38 Q2296.64 1462.32 2296.64 1459.35 Q2296.64 1455.21 2299.58 1452.8 Q2302.55 1450.39 2307.68 1450.39 Q2312.85 1450.39 2315.79 1452.8 Q2318.73 1455.21 2318.73 1459.35 Q2318.73 1462.32 2317.04 1464.38 Q2315.37 1466.44 2312.38 1467.18 Q2315.76 1467.96 2317.64 1470.26 Q2319.54 1472.55 2319.54 1475.86 Q2319.54 1480.88 2316.46 1483.57 Q2313.4 1486.25 2307.68 1486.25 Q2301.97 1486.25 2298.89 1483.57 Q2295.83 1480.88 2295.83 1475.86 Q2295.83 1472.55 2297.73 1470.26 Q2299.63 1467.96 2303.01 1467.18 M2301.3 1459.79 Q2301.3 1462.48 2302.96 1463.98 Q2304.65 1465.49 2307.68 1465.49 Q2310.69 1465.49 2312.38 1463.98 Q2314.1 1462.48 2314.1 1459.79 Q2314.1 1457.11 2312.38 1455.6 Q2310.69 1454.1 2307.68 1454.1 Q2304.65 1454.1 2302.96 1455.6 Q2301.3 1457.11 2301.3 1459.79 Z" fill="#000000" fill-rule="nonzero" fill-opacity="1" /><path clip-path="url(#clip380)" d="M1112.97 1537.81 L1112.97 1518.52 L1118.83 1518.52 L1118.83 1568.04 L1112.97 1568.04 L1112.97 1562.7 Q1111.13 1565.88 1108.3 1567.44 Q1105.49 1568.97 1101.55 1568.97 Q1095.09 1568.97 1091.01 1563.81 Q1086.97 1558.65 1086.97 1550.25 Q1086.97 1541.85 1091.01 1536.69 Q1095.09 1531.54 1101.55 1531.54 Q1105.49 1531.54 1108.3 1533.1 Q1111.13 1534.62 1112.97 1537.81 M1093.02 1550.25 Q1093.02 1556.71 1095.66 1560.4 Q1098.33 1564.07 1102.98 1564.07 Q1107.63 1564.07 1110.3 1560.4 Q1112.97 1556.71 1112.97 1550.25 Q1112.97 1543.79 1110.3 1540.13 Q1107.63 1536.44 1102.98 1536.44 Q1098.33 1536.44 1095.66 1540.13 Q1093.02 1543.79 1093.02 1550.25 Z" fill="#000000" fill-rule="nonzero" fill-opacity="1" /><path clip-path="url(#clip380)" d="M1130.89 1532.4 L1136.75 1532.4 L1136.75 1568.04 L1130.89 1568.04 L1130.89 1532.4 M1130.89 1518.52 L1136.75 1518.52 L1136.75 1525.93 L1130.89 1525.93 L1130.89 1518.52 Z" fill="#000000" fill-rule="nonzero" fill-opacity="1" /><path clip-path="url(#clip380)" d="M1176.76 1539.24 Q1178.95 1535.29 1182.01 1533.41 Q1185.07 1531.54 1189.2 1531.54 Q1194.77 1531.54 1197.8 1535.45 Q1200.82 1539.33 1200.82 1546.53 L1200.82 1568.04 L1194.93 1568.04 L1194.93 1546.72 Q1194.93 1541.59 1193.12 1539.11 Q1191.3 1536.63 1187.58 1536.63 Q1183.03 1536.63 1180.39 1539.65 Q1177.75 1542.68 1177.75 1547.9 L1177.75 1568.04 L1171.86 1568.04 L1171.86 1546.72 Q1171.86 1541.56 1170.04 1539.11 Q1168.23 1536.63 1164.44 1536.63 Q1159.95 1536.63 1157.31 1539.68 Q1154.67 1542.71 1154.67 1547.9 L1154.67 1568.04 L1148.78 1568.04 L1148.78 1532.4 L1154.67 1532.4 L1154.67 1537.93 Q1156.67 1534.66 1159.48 1533.1 Q1162.28 1531.54 1166.13 1531.54 Q1170.01 1531.54 1172.72 1533.51 Q1175.45 1535.48 1176.76 1539.24 Z" fill="#000000" fill-rule="nonzero" fill-opacity="1" /><path clip-path="url(#clip380)" d="M1242.99 1548.76 L1242.99 1551.62 L1216.07 1551.62 Q1216.45 1557.67 1219.7 1560.85 Q1222.97 1564 1228.8 1564 Q1232.17 1564 1235.32 1563.17 Q1238.51 1562.35 1241.63 1560.69 L1241.63 1566.23 Q1238.47 1567.57 1235.16 1568.27 Q1231.85 1568.97 1228.45 1568.97 Q1219.92 1568.97 1214.92 1564 Q1209.96 1559.04 1209.96 1550.57 Q1209.96 1541.82 1214.67 1536.69 Q1219.41 1531.54 1227.43 1531.54 Q1234.62 1531.54 1238.79 1536.18 Q1242.99 1540.8 1242.99 1548.76 M1237.14 1547.04 Q1237.07 1542.23 1234.43 1539.37 Q1231.82 1536.5 1227.49 1536.5 Q1222.59 1536.5 1219.63 1539.27 Q1216.7 1542.04 1216.26 1547.07 L1237.14 1547.04 Z" fill="#000000" fill-rule="nonzero" fill-opacity="1" /><path clip-path="url(#clip380)" d="M1282.24 1546.53 L1282.24 1568.04 L1276.38 1568.04 L1276.38 1546.72 Q1276.38 1541.66 1274.41 1539.14 Q1272.44 1536.63 1268.49 1536.63 Q1263.75 1536.63 1261.01 1539.65 Q1258.27 1542.68 1258.27 1547.9 L1258.27 1568.04 L1252.38 1568.04 L1252.38 1532.4 L1258.27 1532.4 L1258.27 1537.93 Q1260.37 1534.72 1263.21 1533.13 Q1266.07 1531.54 1269.79 1531.54 Q1275.94 1531.54 1279.09 1535.36 Q1282.24 1539.14 1282.24 1546.53 Z" fill="#000000" fill-rule="nonzero" fill-opacity="1" /><path clip-path="url(#clip380)" d="M1316.65 1533.45 L1316.65 1538.98 Q1314.16 1537.71 1311.49 1537.07 Q1308.82 1536.44 1305.95 1536.44 Q1301.59 1536.44 1299.39 1537.77 Q1297.23 1539.11 1297.23 1541.79 Q1297.23 1543.82 1298.79 1545 Q1300.35 1546.15 1305.06 1547.2 L1307.06 1547.64 Q1313.3 1548.98 1315.91 1551.43 Q1318.55 1553.85 1318.55 1558.21 Q1318.55 1563.17 1314.61 1566.07 Q1310.69 1568.97 1303.82 1568.97 Q1300.95 1568.97 1297.83 1568.39 Q1294.75 1567.85 1291.31 1566.74 L1291.31 1560.69 Q1294.56 1562.38 1297.71 1563.24 Q1300.86 1564.07 1303.95 1564.07 Q1308.08 1564.07 1310.31 1562.66 Q1312.54 1561.23 1312.54 1558.65 Q1312.54 1556.27 1310.92 1554.99 Q1309.32 1553.72 1303.88 1552.54 L1301.84 1552.07 Q1296.4 1550.92 1293.98 1548.56 Q1291.56 1546.18 1291.56 1542.04 Q1291.56 1537.01 1295.13 1534.27 Q1298.69 1531.54 1305.25 1531.54 Q1308.5 1531.54 1311.36 1532.01 Q1314.23 1532.49 1316.65 1533.45 Z" fill="#000000" fill-rule="nonzero" fill-opacity="1" /><path clip-path="url(#clip380)" d="M1327.88 1532.4 L1333.74 1532.4 L1333.74 1568.04 L1327.88 1568.04 L1327.88 1532.4 M1327.88 1518.52 L1333.74 1518.52 L1333.74 1525.93 L1327.88 1525.93 L1327.88 1518.52 Z" fill="#000000" fill-rule="nonzero" fill-opacity="1" /><path clip-path="url(#clip380)" d="M1359.8 1536.5 Q1355.09 1536.5 1352.36 1540.19 Q1349.62 1543.85 1349.62 1550.25 Q1349.62 1556.65 1352.32 1560.34 Q1355.06 1564 1359.8 1564 Q1364.48 1564 1367.22 1560.31 Q1369.96 1556.62 1369.96 1550.25 Q1369.96 1543.92 1367.22 1540.23 Q1364.48 1536.5 1359.8 1536.5 M1359.8 1531.54 Q1367.44 1531.54 1371.8 1536.5 Q1376.16 1541.47 1376.16 1550.25 Q1376.16 1559 1371.8 1564 Q1367.44 1568.97 1359.8 1568.97 Q1352.13 1568.97 1347.77 1564 Q1343.44 1559 1343.44 1550.25 Q1343.44 1541.47 1347.77 1536.5 Q1352.13 1531.54 1359.8 1531.54 Z" fill="#000000" fill-rule="nonzero" fill-opacity="1" /><path clip-path="url(#clip380)" d="M1415.5 1546.53 L1415.5 1568.04 L1409.65 1568.04 L1409.65 1546.72 Q1409.65 1541.66 1407.67 1539.14 Q1405.7 1536.63 1401.75 1536.63 Q1397.01 1536.63 1394.27 1539.65 Q1391.54 1542.68 1391.54 1547.9 L1391.54 1568.04 L1385.65 1568.04 L1385.65 1532.4 L1391.54 1532.4 L1391.54 1537.93 Q1393.64 1534.72 1396.47 1533.13 Q1399.34 1531.54 1403.06 1531.54 Q1409.2 1531.54 1412.35 1535.36 Q1415.5 1539.14 1415.5 1546.53 Z" fill="#000000" fill-rule="nonzero" fill-opacity="1" /><path clip-path="url(#clip380)" d="M1461.97 1518.58 Q1457.71 1525.9 1455.64 1533.06 Q1453.57 1540.23 1453.57 1547.58 Q1453.57 1554.93 1455.64 1562.16 Q1457.74 1569.35 1461.97 1576.64 L1456.88 1576.64 Q1452.11 1569.16 1449.72 1561.93 Q1447.36 1554.71 1447.36 1547.58 Q1447.36 1540.48 1449.72 1533.29 Q1452.08 1526.09 1456.88 1518.58 L1461.97 1518.58 Z" fill="#000000" fill-rule="nonzero" fill-opacity="1" /><path clip-path="url(#clip380)" d="M1502.97 1546.53 L1502.97 1568.04 L1497.11 1568.04 L1497.11 1546.72 Q1497.11 1541.66 1495.14 1539.14 Q1493.17 1536.63 1489.22 1536.63 Q1484.48 1536.63 1481.74 1539.65 Q1479 1542.68 1479 1547.9 L1479 1568.04 L1473.11 1568.04 L1473.11 1532.4 L1479 1532.4 L1479 1537.93 Q1481.1 1534.72 1483.94 1533.13 Q1486.8 1531.54 1490.52 1531.54 Q1496.67 1531.54 1499.82 1535.36 Q1502.97 1539.14 1502.97 1546.53 Z" fill="#000000" fill-rule="nonzero" fill-opacity="1" /><path clip-path="url(#clip380)" d="M1513.73 1518.58 L1518.82 1518.58 Q1523.59 1526.09 1525.95 1533.29 Q1528.34 1540.48 1528.34 1547.58 Q1528.34 1554.71 1525.95 1561.93 Q1523.59 1569.16 1518.82 1576.64 L1513.73 1576.64 Q1517.96 1569.35 1520.03 1562.16 Q1522.13 1554.93 1522.13 1547.58 Q1522.13 1540.23 1520.03 1533.06 Q1517.96 1525.9 1513.73 1518.58 Z" fill="#000000" fill-rule="nonzero" fill-opacity="1" /><polyline clip-path="url(#clip382)" style="stroke:#000000; stroke-linecap:round; stroke-linejoin:round; stroke-width:2; stroke-opacity:0.1; fill:none" points="262.551,1383.08 2352.76,1383.08 "/>
<polyline clip-path="url(#clip382)" style="stroke:#000000; stroke-linecap:round; stroke-linejoin:round; stroke-width:2; stroke-opacity:0.1; fill:none" points="262.551,1092.67 2352.76,1092.67 "/>
<polyline clip-path="url(#clip382)" style="stroke:#000000; stroke-linecap:round; stroke-linejoin:round; stroke-width:2; stroke-opacity:0.1; fill:none" points="262.551,802.273 2352.76,802.273 "/>
<polyline clip-path="url(#clip382)" style="stroke:#000000; stroke-linecap:round; stroke-linejoin:round; stroke-width:2; stroke-opacity:0.1; fill:none" points="262.551,511.87 2352.76,511.87 "/>
<polyline clip-path="url(#clip382)" style="stroke:#000000; stroke-linecap:round; stroke-linejoin:round; stroke-width:2; stroke-opacity:0.1; fill:none" points="262.551,221.468 2352.76,221.468 "/>
<polyline clip-path="url(#clip380)" style="stroke:#000000; stroke-linecap:round; stroke-linejoin:round; stroke-width:4; stroke-opacity:1; fill:none" points="262.551,1423.18 262.551,47.2441 "/>
<polyline clip-path="url(#clip380)" style="stroke:#000000; stroke-linecap:round; stroke-linejoin:round; stroke-width:4; stroke-opacity:1; fill:none" points="262.551,1383.08 281.449,1383.08 "/>
<polyline clip-path="url(#clip380)" style="stroke:#000000; stroke-linecap:round; stroke-linejoin:round; stroke-width:4; stroke-opacity:1; fill:none" points="262.551,1092.67 281.449,1092.67 "/>
<polyline clip-path="url(#clip380)" style="stroke:#000000; stroke-linecap:round; stroke-linejoin:round; stroke-width:4; stroke-opacity:1; fill:none" points="262.551,802.273 281.449,802.273 "/>
<polyline clip-path="url(#clip380)" style="stroke:#000000; stroke-linecap:round; stroke-linejoin:round; stroke-width:4; stroke-opacity:1; fill:none" points="262.551,511.87 281.449,511.87 "/>
<polyline clip-path="url(#clip380)" style="stroke:#000000; stroke-linecap:round; stroke-linejoin:round; stroke-width:4; stroke-opacity:1; fill:none" points="262.551,221.468 281.449,221.468 "/>
<path clip-path="url(#clip380)" d="M214.607 1368.88 Q210.996 1368.88 209.167 1372.44 Q207.362 1375.98 207.362 1383.11 Q207.362 1390.22 209.167 1393.78 Q210.996 1397.32 214.607 1397.32 Q218.241 1397.32 220.047 1393.78 Q221.875 1390.22 221.875 1383.11 Q221.875 1375.98 220.047 1372.44 Q218.241 1368.88 214.607 1368.88 M214.607 1365.17 Q220.417 1365.17 223.473 1369.78 Q226.551 1374.36 226.551 1383.11 Q226.551 1391.84 223.473 1396.44 Q220.417 1401.03 214.607 1401.03 Q208.797 1401.03 205.718 1396.44 Q202.662 1391.84 202.662 1383.11 Q202.662 1374.36 205.718 1369.78 Q208.797 1365.17 214.607 1365.17 Z" fill="#000000" fill-rule="nonzero" fill-opacity="1" /><path clip-path="url(#clip380)" d="M148.311 1106.02 L164.63 1106.02 L164.63 1109.95 L142.686 1109.95 L142.686 1106.02 Q145.348 1103.26 149.931 1098.64 Q154.538 1093.98 155.718 1092.64 Q157.964 1090.12 158.843 1088.38 Q159.746 1086.62 159.746 1084.93 Q159.746 1082.18 157.802 1080.44 Q155.88 1078.7 152.778 1078.7 Q150.579 1078.7 148.126 1079.47 Q145.695 1080.23 142.917 1081.78 L142.917 1077.06 Q145.741 1075.93 148.195 1075.35 Q150.649 1074.77 152.686 1074.77 Q158.056 1074.77 161.251 1077.45 Q164.445 1080.14 164.445 1084.63 Q164.445 1086.76 163.635 1088.68 Q162.848 1090.58 160.741 1093.17 Q160.163 1093.84 157.061 1097.06 Q153.959 1100.26 148.311 1106.02 Z" fill="#000000" fill-rule="nonzero" fill-opacity="1" /><path clip-path="url(#clip380)" d="M174.491 1075.39 L192.848 1075.39 L192.848 1079.33 L178.774 1079.33 L178.774 1087.8 Q179.792 1087.45 180.811 1087.29 Q181.829 1087.11 182.848 1087.11 Q188.635 1087.11 192.014 1090.28 Q195.394 1093.45 195.394 1098.87 Q195.394 1104.45 191.922 1107.55 Q188.45 1110.63 182.13 1110.63 Q179.954 1110.63 177.686 1110.26 Q175.44 1109.89 173.033 1109.14 L173.033 1104.45 Q175.116 1105.58 177.339 1106.14 Q179.561 1106.69 182.038 1106.69 Q186.042 1106.69 188.38 1104.58 Q190.718 1102.48 190.718 1098.87 Q190.718 1095.26 188.38 1093.15 Q186.042 1091.04 182.038 1091.04 Q180.163 1091.04 178.288 1091.46 Q176.436 1091.88 174.491 1092.76 L174.491 1075.39 Z" fill="#000000" fill-rule="nonzero" fill-opacity="1" /><path clip-path="url(#clip380)" d="M214.607 1078.47 Q210.996 1078.47 209.167 1082.04 Q207.362 1085.58 207.362 1092.71 Q207.362 1099.82 209.167 1103.38 Q210.996 1106.92 214.607 1106.92 Q218.241 1106.92 220.047 1103.38 Q221.875 1099.82 221.875 1092.71 Q221.875 1085.58 220.047 1082.04 Q218.241 1078.47 214.607 1078.47 M214.607 1074.77 Q220.417 1074.77 223.473 1079.38 Q226.551 1083.96 226.551 1092.71 Q226.551 1101.44 223.473 1106.04 Q220.417 1110.63 214.607 1110.63 Q208.797 1110.63 205.718 1106.04 Q202.662 1101.44 202.662 1092.71 Q202.662 1083.96 205.718 1079.38 Q208.797 1074.77 214.607 1074.77 Z" fill="#000000" fill-rule="nonzero" fill-opacity="1" /><path clip-path="url(#clip380)" d="M144.329 784.993 L162.686 784.993 L162.686 788.928 L148.612 788.928 L148.612 797.4 Q149.63 797.053 150.649 796.891 Q151.667 796.705 152.686 796.705 Q158.473 796.705 161.852 799.877 Q165.232 803.048 165.232 808.465 Q165.232 814.043 161.76 817.145 Q158.288 820.224 151.968 820.224 Q149.792 820.224 147.524 819.853 Q145.279 819.483 142.871 818.742 L142.871 814.043 Q144.954 815.178 147.177 815.733 Q149.399 816.289 151.876 816.289 Q155.88 816.289 158.218 814.182 Q160.556 812.076 160.556 808.465 Q160.556 804.854 158.218 802.747 Q155.88 800.641 151.876 800.641 Q150.001 800.641 148.126 801.057 Q146.274 801.474 144.329 802.354 L144.329 784.993 Z" fill="#000000" fill-rule="nonzero" fill-opacity="1" /><path clip-path="url(#clip380)" d="M184.445 788.071 Q180.834 788.071 179.005 791.636 Q177.2 795.178 177.2 802.307 Q177.2 809.414 179.005 812.978 Q180.834 816.52 184.445 816.52 Q188.079 816.52 189.885 812.978 Q191.713 809.414 191.713 802.307 Q191.713 795.178 189.885 791.636 Q188.079 788.071 184.445 788.071 M184.445 784.368 Q190.255 784.368 193.311 788.974 Q196.389 793.557 196.389 802.307 Q196.389 811.034 193.311 815.64 Q190.255 820.224 184.445 820.224 Q178.635 820.224 175.556 815.64 Q172.501 811.034 172.501 802.307 Q172.501 793.557 175.556 788.974 Q178.635 784.368 184.445 784.368 Z" fill="#000000" fill-rule="nonzero" fill-opacity="1" /><path clip-path="url(#clip380)" d="M214.607 788.071 Q210.996 788.071 209.167 791.636 Q207.362 795.178 207.362 802.307 Q207.362 809.414 209.167 812.978 Q210.996 816.52 214.607 816.52 Q218.241 816.52 220.047 812.978 Q221.875 809.414 221.875 802.307 Q221.875 795.178 220.047 791.636 Q218.241 788.071 214.607 788.071 M214.607 784.368 Q220.417 784.368 223.473 788.974 Q226.551 793.557 226.551 802.307 Q226.551 811.034 223.473 815.64 Q220.417 820.224 214.607 820.224 Q208.797 820.224 205.718 815.64 Q202.662 811.034 202.662 802.307 Q202.662 793.557 205.718 788.974 Q208.797 784.368 214.607 784.368 Z" fill="#000000" fill-rule="nonzero" fill-opacity="1" /><path clip-path="url(#clip380)" d="M143.103 494.59 L165.325 494.59 L165.325 496.581 L152.778 529.15 L147.894 529.15 L159.7 498.526 L143.103 498.526 L143.103 494.59 Z" fill="#000000" fill-rule="nonzero" fill-opacity="1" /><path clip-path="url(#clip380)" d="M174.491 494.59 L192.848 494.59 L192.848 498.526 L178.774 498.526 L178.774 506.998 Q179.792 506.651 180.811 506.489 Q181.829 506.303 182.848 506.303 Q188.635 506.303 192.014 509.475 Q195.394 512.646 195.394 518.063 Q195.394 523.641 191.922 526.743 Q188.45 529.822 182.13 529.822 Q179.954 529.822 177.686 529.451 Q175.44 529.081 173.033 528.34 L173.033 523.641 Q175.116 524.775 177.339 525.331 Q179.561 525.887 182.038 525.887 Q186.042 525.887 188.38 523.78 Q190.718 521.674 190.718 518.063 Q190.718 514.451 188.38 512.345 Q186.042 510.238 182.038 510.238 Q180.163 510.238 178.288 510.655 Q176.436 511.072 174.491 511.951 L174.491 494.59 Z" fill="#000000" fill-rule="nonzero" fill-opacity="1" /><path clip-path="url(#clip380)" d="M214.607 497.669 Q210.996 497.669 209.167 501.234 Q207.362 504.776 207.362 511.905 Q207.362 519.012 209.167 522.576 Q210.996 526.118 214.607 526.118 Q218.241 526.118 220.047 522.576 Q221.875 519.012 221.875 511.905 Q221.875 504.776 220.047 501.234 Q218.241 497.669 214.607 497.669 M214.607 493.965 Q220.417 493.965 223.473 498.572 Q226.551 503.155 226.551 511.905 Q226.551 520.632 223.473 525.238 Q220.417 529.822 214.607 529.822 Q208.797 529.822 205.718 525.238 Q202.662 520.632 202.662 511.905 Q202.662 503.155 205.718 498.572 Q208.797 493.965 214.607 493.965 Z" fill="#000000" fill-rule="nonzero" fill-opacity="1" /><path clip-path="url(#clip380)" d="M114.931 234.813 L122.57 234.813 L122.57 208.448 L114.26 210.114 L114.26 205.855 L122.524 204.188 L127.2 204.188 L127.2 234.813 L134.839 234.813 L134.839 238.748 L114.931 238.748 L114.931 234.813 Z" fill="#000000" fill-rule="nonzero" fill-opacity="1" /><path clip-path="url(#clip380)" d="M154.283 207.267 Q150.672 207.267 148.843 210.832 Q147.038 214.373 147.038 221.503 Q147.038 228.61 148.843 232.174 Q150.672 235.716 154.283 235.716 Q157.917 235.716 159.723 232.174 Q161.552 228.61 161.552 221.503 Q161.552 214.373 159.723 210.832 Q157.917 207.267 154.283 207.267 M154.283 203.563 Q160.093 203.563 163.149 208.17 Q166.227 212.753 166.227 221.503 Q166.227 230.23 163.149 234.836 Q160.093 239.42 154.283 239.42 Q148.473 239.42 145.394 234.836 Q142.339 230.23 142.339 221.503 Q142.339 212.753 145.394 208.17 Q148.473 203.563 154.283 203.563 Z" fill="#000000" fill-rule="nonzero" fill-opacity="1" /><path clip-path="url(#clip380)" d="M184.445 207.267 Q180.834 207.267 179.005 210.832 Q177.2 214.373 177.2 221.503 Q177.2 228.61 179.005 232.174 Q180.834 235.716 184.445 235.716 Q188.079 235.716 189.885 232.174 Q191.713 228.61 191.713 221.503 Q191.713 214.373 189.885 210.832 Q188.079 207.267 184.445 207.267 M184.445 203.563 Q190.255 203.563 193.311 208.17 Q196.389 212.753 196.389 221.503 Q196.389 230.23 193.311 234.836 Q190.255 239.42 184.445 239.42 Q178.635 239.42 175.556 234.836 Q172.501 230.23 172.501 221.503 Q172.501 212.753 175.556 208.17 Q178.635 203.563 184.445 203.563 Z" fill="#000000" fill-rule="nonzero" fill-opacity="1" /><path clip-path="url(#clip380)" d="M214.607 207.267 Q210.996 207.267 209.167 210.832 Q207.362 214.373 207.362 221.503 Q207.362 228.61 209.167 232.174 Q210.996 235.716 214.607 235.716 Q218.241 235.716 220.047 232.174 Q221.875 228.61 221.875 221.503 Q221.875 214.373 220.047 210.832 Q218.241 207.267 214.607 207.267 M214.607 203.563 Q220.417 203.563 223.473 208.17 Q226.551 212.753 226.551 221.503 Q226.551 230.23 223.473 234.836 Q220.417 239.42 214.607 239.42 Q208.797 239.42 205.718 234.836 Q202.662 230.23 202.662 221.503 Q202.662 212.753 205.718 208.17 Q208.797 203.563 214.607 203.563 Z" fill="#000000" fill-rule="nonzero" fill-opacity="1" /><path clip-path="url(#clip380)" d="M33.8307 784.18 Q33.2578 785.167 33.0032 786.345 Q32.7167 787.49 32.7167 788.891 Q32.7167 793.856 35.9632 796.53 Q39.1779 799.171 45.2253 799.171 L64.0042 799.171 L64.0042 805.06 L28.3562 805.06 L28.3562 799.171 L33.8944 799.171 Q30.6479 797.325 29.0883 794.365 Q27.4968 791.405 27.4968 787.172 Q27.4968 786.567 27.5923 785.835 Q27.656 785.103 27.8151 784.212 L33.8307 784.18 Z" fill="#000000" fill-rule="nonzero" fill-opacity="1" /><path clip-path="url(#clip380)" d="M46.0847 761.837 Q46.0847 768.934 47.7079 771.672 Q49.3312 774.409 53.2461 774.409 Q56.3653 774.409 58.2114 772.372 Q60.0256 770.303 60.0256 766.77 Q60.0256 761.9 56.5881 758.972 Q53.1188 756.012 47.3897 756.012 L46.0847 756.012 L46.0847 761.837 M43.6657 750.155 L64.0042 750.155 L64.0042 756.012 L58.5933 756.012 Q61.8398 758.017 63.3994 761.009 Q64.9272 764.001 64.9272 768.33 Q64.9272 773.804 61.8716 777.051 Q58.7843 780.265 53.6281 780.265 Q47.6125 780.265 44.5569 776.255 Q41.5014 772.213 41.5014 764.224 L41.5014 756.012 L40.9285 756.012 Q36.8862 756.012 34.6901 758.686 Q32.4621 761.327 32.4621 766.133 Q32.4621 769.189 33.1941 772.085 Q33.9262 774.982 35.3903 777.655 L29.9795 777.655 Q28.7381 774.441 28.1334 771.417 Q27.4968 768.393 27.4968 765.529 Q27.4968 757.794 31.5072 753.975 Q35.5176 750.155 43.6657 750.155 Z" fill="#000000" fill-rule="nonzero" fill-opacity="1" /><path clip-path="url(#clip380)" d="M42.4881 708.46 L64.0042 708.46 L64.0042 714.317 L42.679 714.317 Q37.6183 714.317 35.1038 716.29 Q32.5894 718.263 32.5894 722.21 Q32.5894 726.952 35.6131 729.69 Q38.6368 732.427 43.8567 732.427 L64.0042 732.427 L64.0042 738.315 L28.3562 738.315 L28.3562 732.427 L33.8944 732.427 Q30.6797 730.326 29.0883 727.494 Q27.4968 724.629 27.4968 720.905 Q27.4968 714.762 31.3163 711.611 Q35.1038 708.46 42.4881 708.46 Z" fill="#000000" fill-rule="nonzero" fill-opacity="1" /><path clip-path="url(#clip380)" d="M14.479 697.002 L14.479 691.114 L43.7294 691.114 L28.3562 673.64 L28.3562 666.16 L45.0344 685.066 L64.0042 665.364 L64.0042 673.003 L46.5939 691.114 L64.0042 691.114 L64.0042 697.002 L14.479 697.002 Z" fill="#000000" fill-rule="nonzero" fill-opacity="1" /><polyline clip-path="url(#clip382)" style="stroke:#e26f46; stroke-linecap:round; stroke-linejoin:round; stroke-width:4; stroke-opacity:1; fill:none" points="321.708,1379.59 444.951,1374.12 568.194,1364.49 691.438,1349.57 814.681,1328.19 937.924,1299.2 1061.17,1261.42 1184.41,1213.71 1307.65,1154.9 1430.9,1083.83 1554.14,999.336 1677.38,900.256 1800.63,785.429 1923.87,653.695 2047.11,503.891 2170.36,334.856 2293.6,145.428 "/>
<polyline clip-path="url(#clip382)" style="stroke:#009af9; stroke-linecap:round; stroke-linejoin:round; stroke-width:4; stroke-opacity:1; fill:none" stroke-dasharray="16, 10" points="321.708,1376.11 444.951,1367.15 568.194,1354.04 691.438,1335.63 814.681,1310.77 937.924,1278.29 1061.17,1237.03 1184.41,1185.84 1307.65,1123.54 1430.9,1048.98 1554.14,961.003 1677.38,858.438 1800.63,740.126 1923.87,604.907 2047.11,451.618 2170.36,279.098 2293.6,86.1857 "/>
<polyline clip-path="url(#clip382)" style="stroke:#009af9; stroke-linecap:round; stroke-linejoin:round; stroke-width:4; stroke-opacity:1; fill:none" stroke-dasharray="16, 10" points="321.708,1384.24 444.951,1382.25 568.194,1376.11 691.438,1364.67 814.681,1346.78 937.924,1321.27 1061.17,1286.98 1184.41,1242.75 1307.65,1187.43 1430.9,1119.84 1554.14,1038.83 1677.38,943.235 1800.63,831.894 1923.87,703.644 2047.11,557.325 2170.36,391.774 2293.6,205.831 "/>
<path clip-path="url(#clip382)" d="M321.708 1383.08 L444.951 1381.09 L568.194 1374.95 L691.438 1363.51 L814.681 1345.61 L937.924 1320.11 L1061.17 1285.82 L1184.41 1241.59 L1307.65 1186.27 L1430.9 1118.68 L1554.14 1037.67 L1677.38 942.074 L1800.63 830.732 L1923.87 702.482 L2047.11 556.163 L2170.36 390.613 L2293.6 204.67 L2293.6 86.1857 L2170.36 279.098 L2047.11 451.618 L1923.87 604.907 L1800.63 740.126 L1677.38 858.438 L1554.14 961.003 L1430.9 1048.98 L1307.65 1123.54 L1184.41 1185.84 L1061.17 1237.03 L937.924 1278.29 L814.681 1310.77 L691.438 1335.63 L568.194 1354.04 L444.951 1367.15 L321.708 1376.11  Z" fill="#009af9" fill-rule="evenodd" fill-opacity="0.1"/>
<polyline clip-path="url(#clip382)" style="stroke:#009af9; stroke-linecap:round; stroke-linejoin:round; stroke-width:4; stroke-opacity:1; fill:none" stroke-dasharray="16, 10" points="321.708,1383.08 444.951,1381.09 568.194,1374.95 691.438,1363.51 814.681,1345.61 937.924,1320.11 1061.17,1285.82 1184.41,1241.59 1307.65,1186.27 1430.9,1118.68 1554.14,1037.67 1677.38,942.074 1800.63,830.732 1923.87,702.482 2047.11,556.163 2170.36,390.613 2293.6,204.67 "/>
<polyline clip-path="url(#clip382)" style="stroke:#008000; stroke-linecap:round; stroke-linejoin:round; stroke-width:4; stroke-opacity:1; fill:none" stroke-dasharray="16, 10" points="321.708,1380.75 444.951,1378.6 568.194,1375.64 691.438,1371.91 814.681,1367.39 937.924,1362.11 1061.17,1356.04 1184.41,1349.2 1307.65,1341.59 1430.9,1333.2 1554.14,1324.04 1677.38,1314.1 1800.63,1303.39 1923.87,1291.9 2047.11,1279.64 2170.36,1266.61 2293.6,1252.8 "/>
<polyline clip-path="url(#clip382)" style="stroke:#e26f46; stroke-linecap:round; stroke-linejoin:round; stroke-width:4; stroke-opacity:1; fill:none" points="321.708,1379.59 444.951,1374.12 568.194,1364.49 691.438,1349.57 814.681,1328.19 937.924,1299.2 1061.17,1261.42 1184.41,1213.71 1307.65,1154.9 1430.9,1083.83 1554.14,999.336 1677.38,900.256 1800.63,785.429 1923.87,653.695 2047.11,503.891 2170.36,334.856 2293.6,145.428 "/>
<path clip-path="url(#clip380)" d="M332.225 352.309 L1250.85 352.309 L1250.85 93.1086 L332.225 93.1086  Z" fill="#ffffff" fill-rule="evenodd" fill-opacity="1"/>
<polyline clip-path="url(#clip380)" style="stroke:#000000; stroke-linecap:round; stroke-linejoin:round; stroke-width:4; stroke-opacity:1; fill:none" points="332.225,352.309 1250.85,352.309 1250.85,93.1086 332.225,93.1086 332.225,352.309 "/>
<polyline clip-path="url(#clip380)" style="stroke:#e26f46; stroke-linecap:round; stroke-linejoin:round; stroke-width:4; stroke-opacity:1; fill:none" points="355.449,144.949 494.796,144.949 "/>
<path clip-path="url(#clip380)" d="M543.576 142.431 L543.576 133.149 L535.937 133.149 L535.937 129.306 L548.206 129.306 L548.206 144.144 Q545.497 146.065 542.234 147.061 Q538.97 148.033 535.266 148.033 Q527.164 148.033 522.581 143.311 Q518.021 138.565 518.021 130.116 Q518.021 121.644 522.581 116.922 Q527.164 112.176 535.266 112.176 Q538.646 112.176 541.678 113.01 Q544.734 113.843 547.303 115.463 L547.303 120.44 Q544.71 118.241 541.794 117.13 Q538.877 116.019 535.659 116.019 Q529.317 116.019 526.122 119.561 Q522.951 123.102 522.951 130.116 Q522.951 137.107 526.122 140.649 Q529.317 144.19 535.659 144.19 Q538.136 144.19 540.081 143.773 Q542.025 143.334 543.576 142.431 Z" fill="#000000" fill-rule="nonzero" fill-opacity="1" /><path clip-path="url(#clip380)" d="M578.738 133.334 L578.738 135.417 L559.155 135.417 Q559.432 139.815 561.794 142.13 Q564.178 144.422 568.414 144.422 Q570.868 144.422 573.159 143.82 Q575.474 143.218 577.743 142.014 L577.743 146.042 Q575.451 147.014 573.044 147.523 Q570.636 148.033 568.159 148.033 Q561.956 148.033 558.321 144.422 Q554.71 140.811 554.71 134.653 Q554.71 128.287 558.136 124.561 Q561.585 120.811 567.419 120.811 Q572.65 120.811 575.682 124.19 Q578.738 127.547 578.738 133.334 M574.479 132.084 Q574.432 128.588 572.511 126.505 Q570.613 124.422 567.465 124.422 Q563.9 124.422 561.747 126.436 Q559.618 128.449 559.294 132.107 L574.479 132.084 Z" fill="#000000" fill-rule="nonzero" fill-opacity="1" /><path clip-path="url(#clip380)" d="M607.279 131.713 L607.279 147.361 L603.02 147.361 L603.02 131.852 Q603.02 128.172 601.585 126.343 Q600.15 124.514 597.28 124.514 Q593.83 124.514 591.84 126.713 Q589.849 128.912 589.849 132.709 L589.849 147.361 L585.567 147.361 L585.567 121.436 L589.849 121.436 L589.849 125.463 Q591.377 123.125 593.437 121.968 Q595.52 120.811 598.229 120.811 Q602.696 120.811 604.988 123.588 Q607.279 126.343 607.279 131.713 Z" fill="#000000" fill-rule="nonzero" fill-opacity="1" /><path clip-path="url(#clip380)" d="M637.951 133.334 L637.951 135.417 L618.367 135.417 Q618.645 139.815 621.006 142.13 Q623.39 144.422 627.627 144.422 Q630.08 144.422 632.372 143.82 Q634.687 143.218 636.955 142.014 L636.955 146.042 Q634.664 147.014 632.256 147.523 Q629.849 148.033 627.372 148.033 Q621.168 148.033 617.534 144.422 Q613.923 140.811 613.923 134.653 Q613.923 128.287 617.349 124.561 Q620.798 120.811 626.631 120.811 Q631.863 120.811 634.895 124.19 Q637.951 127.547 637.951 133.334 M633.691 132.084 Q633.645 128.588 631.724 126.505 Q629.826 124.422 626.678 124.422 Q623.113 124.422 620.96 126.436 Q618.83 128.449 618.506 132.107 L633.691 132.084 Z" fill="#000000" fill-rule="nonzero" fill-opacity="1" /><path clip-path="url(#clip380)" d="M659.964 125.417 Q659.247 125 658.39 124.815 Q657.557 124.607 656.538 124.607 Q652.927 124.607 650.983 126.968 Q649.062 129.306 649.062 133.704 L649.062 147.361 L644.779 147.361 L644.779 121.436 L649.062 121.436 L649.062 125.463 Q650.404 123.102 652.557 121.968 Q654.71 120.811 657.788 120.811 Q658.228 120.811 658.761 120.88 Q659.293 120.926 659.941 121.042 L659.964 125.417 Z" fill="#000000" fill-rule="nonzero" fill-opacity="1" /><path clip-path="url(#clip380)" d="M664.432 121.436 L668.691 121.436 L668.691 147.361 L664.432 147.361 L664.432 121.436 M664.432 111.343 L668.691 111.343 L668.691 116.737 L664.432 116.737 L664.432 111.343 Z" fill="#000000" fill-rule="nonzero" fill-opacity="1" /><path clip-path="url(#clip380)" d="M696.26 122.431 L696.26 126.412 Q694.455 125.417 692.626 124.931 Q690.821 124.422 688.969 124.422 Q684.825 124.422 682.534 127.061 Q680.242 129.676 680.242 134.422 Q680.242 139.167 682.534 141.806 Q684.825 144.422 688.969 144.422 Q690.821 144.422 692.626 143.936 Q694.455 143.426 696.26 142.431 L696.26 146.366 Q694.478 147.199 692.557 147.616 Q690.659 148.033 688.506 148.033 Q682.649 148.033 679.2 144.352 Q675.751 140.672 675.751 134.422 Q675.751 128.079 679.224 124.445 Q682.719 120.811 688.784 120.811 Q690.751 120.811 692.626 121.227 Q694.501 121.621 696.26 122.431 Z" fill="#000000" fill-rule="nonzero" fill-opacity="1" /><path clip-path="url(#clip380)" d="M733.76 125.417 Q733.043 125 732.186 124.815 Q731.353 124.607 730.334 124.607 Q726.723 124.607 724.779 126.968 Q722.858 129.306 722.858 133.704 L722.858 147.361 L718.575 147.361 L718.575 121.436 L722.858 121.436 L722.858 125.463 Q724.2 123.102 726.353 121.968 Q728.506 120.811 731.584 120.811 Q732.024 120.811 732.557 120.88 Q733.089 120.926 733.737 121.042 L733.76 125.417 Z" fill="#000000" fill-rule="nonzero" fill-opacity="1" /><path clip-path="url(#clip380)" d="M750.01 134.329 Q744.848 134.329 742.857 135.51 Q740.867 136.69 740.867 139.537 Q740.867 141.806 742.348 143.148 Q743.853 144.468 746.422 144.468 Q749.964 144.468 752.094 141.968 Q754.246 139.445 754.246 135.278 L754.246 134.329 L750.01 134.329 M758.506 132.57 L758.506 147.361 L754.246 147.361 L754.246 143.426 Q752.788 145.787 750.612 146.922 Q748.436 148.033 745.288 148.033 Q741.307 148.033 738.945 145.811 Q736.607 143.565 736.607 139.815 Q736.607 135.44 739.524 133.218 Q742.464 130.996 748.274 130.996 L754.246 130.996 L754.246 130.579 Q754.246 127.639 752.302 126.042 Q750.381 124.422 746.885 124.422 Q744.663 124.422 742.557 124.954 Q740.45 125.487 738.506 126.551 L738.506 122.616 Q740.844 121.713 743.043 121.274 Q745.242 120.811 747.325 120.811 Q752.95 120.811 755.728 123.727 Q758.506 126.644 758.506 132.57 Z" fill="#000000" fill-rule="nonzero" fill-opacity="1" /><path clip-path="url(#clip380)" d="M788.829 131.713 L788.829 147.361 L784.57 147.361 L784.57 131.852 Q784.57 128.172 783.135 126.343 Q781.7 124.514 778.829 124.514 Q775.38 124.514 773.39 126.713 Q771.399 128.912 771.399 132.709 L771.399 147.361 L767.117 147.361 L767.117 121.436 L771.399 121.436 L771.399 125.463 Q772.927 123.125 774.987 121.968 Q777.07 120.811 779.779 120.811 Q784.246 120.811 786.538 123.588 Q788.829 126.343 788.829 131.713 Z" fill="#000000" fill-rule="nonzero" fill-opacity="1" /><path clip-path="url(#clip380)" d="M797.163 111.343 L801.445 111.343 L801.445 132.616 L814.153 121.436 L819.593 121.436 L805.843 133.565 L820.172 147.361 L814.616 147.361 L801.445 134.699 L801.445 147.361 L797.163 147.361 L797.163 111.343 Z" fill="#000000" fill-rule="nonzero" fill-opacity="1" /><path clip-path="url(#clip380)" d="M874.683 140.499 Q874.683 140.686 874.472 141.412 Q874.261 142.138 873.746 143.263 Q873.254 144.387 872.552 145.417 Q871.872 146.425 870.748 147.174 Q869.647 147.9 868.382 147.9 Q866.696 147.9 865.572 146.776 Q864.447 145.652 864.447 143.965 Q864.447 143.052 865.08 141.318 Q868.054 133.402 868.054 130.568 Q868.054 127.218 865.455 127.218 Q863.979 127.218 862.644 127.827 Q861.309 128.436 860.442 129.279 Q859.575 130.123 858.896 131.083 Q858.217 132.043 857.912 132.676 Q857.631 133.308 857.561 133.589 L854.68 145.16 Q854.446 146.143 854.282 146.612 Q854.118 147.08 853.673 147.479 Q853.228 147.9 852.525 147.9 Q851.94 147.9 851.518 147.549 Q851.12 147.197 851.12 146.588 Q851.12 146.495 851.237 146.003 Q851.354 145.511 851.518 144.832 Q851.682 144.153 851.752 143.754 Q852.596 140.569 852.713 140.124 L854.048 134.549 Q854.774 131.786 854.774 130.568 Q854.774 127.218 852.174 127.218 Q850.886 127.218 849.668 127.71 Q848.473 128.178 847.653 128.834 Q846.834 129.49 846.084 130.404 Q845.358 131.294 844.983 131.903 Q844.632 132.488 844.351 133.074 L843.742 135.463 Q843.601 136.119 842.922 138.672 L841.868 143.005 Q841.119 146.237 840.955 146.542 Q840.72 147.197 840.205 147.549 Q839.69 147.9 839.175 147.9 Q838.589 147.9 838.191 147.549 Q837.793 147.197 837.793 146.588 Q837.793 146.495 837.863 146.143 Q837.933 145.792 838.05 145.3 Q838.167 144.808 838.214 144.527 L841.001 133.448 Q841.517 131.434 841.634 130.802 Q841.774 130.146 841.774 129.42 Q841.774 127.218 840.275 127.218 Q839.057 127.218 838.261 128.67 Q837.465 130.123 836.785 132.933 Q836.575 133.706 836.434 133.87 Q836.317 134.034 835.966 134.034 Q835.38 134.011 835.38 133.542 Q835.38 133.425 835.567 132.676 Q835.755 131.926 836.106 130.802 Q836.481 129.654 836.879 128.905 Q837.113 128.413 837.324 128.085 Q837.535 127.757 837.957 127.242 Q838.378 126.726 839.011 126.445 Q839.643 126.164 840.416 126.164 Q842.126 126.164 843.391 127.265 Q844.679 128.366 844.843 130.333 Q847.958 126.164 852.315 126.164 Q854.774 126.164 856.249 127.406 Q857.631 128.6 857.795 130.802 Q861.028 126.164 865.618 126.164 Q868.265 126.164 869.694 127.546 Q871.123 128.905 871.123 131.294 Q871.123 132.535 870.49 134.901 Q869.858 137.243 869.436 138.414 Q869.015 139.585 868.195 141.834 Q867.328 143.989 867.328 145.253 Q867.328 146.073 867.609 146.448 Q867.89 146.823 868.499 146.823 Q869.436 146.823 870.256 146.284 Q871.076 145.722 871.661 144.808 Q872.27 143.871 872.669 142.935 Q873.067 141.974 873.371 140.897 Q873.559 140.311 873.652 140.171 Q873.769 140.03 874.097 140.03 Q874.683 140.03 874.683 140.499 Z" fill="#000000" fill-rule="nonzero" fill-opacity="1" /><path clip-path="url(#clip380)" d="M894.818 143.442 Q894.818 143.458 894.72 144.049 L890.982 158.952 Q890.785 159.739 890.228 160.526 Q889.686 161.33 888.817 162.018 Q887.965 162.723 886.653 163.15 Q885.358 163.592 883.866 163.592 Q881.489 163.592 880.439 163.084 Q879.406 162.592 879.406 161.543 Q879.406 160.625 879.98 160.1 Q880.554 159.592 881.21 159.592 Q881.833 159.592 882.161 159.952 Q882.489 160.313 882.489 160.772 Q882.489 161.281 882.144 161.789 Q881.8 162.313 881.111 162.51 Q882.21 162.855 883.8 162.855 Q887.162 162.855 888.604 159.297 Q888.637 159.247 888.637 159.231 L889.752 154.788 L889.703 154.755 Q889.424 155.083 888.981 155.46 Q888.555 155.821 887.637 156.263 Q886.719 156.706 885.817 156.706 Q883.932 156.706 882.636 155.263 Q881.357 153.804 881.357 151.394 Q881.357 149.64 882.062 147.885 Q882.784 146.114 883.899 144.819 Q885.03 143.508 886.473 142.688 Q887.932 141.868 889.342 141.868 Q890.326 141.868 891.162 142.458 Q891.998 143.032 892.457 143.983 Q892.539 143.196 892.982 142.868 Q893.441 142.54 893.835 142.54 Q894.277 142.54 894.54 142.786 Q894.818 143.016 894.818 143.442 M892.064 145.491 Q892.064 145.393 891.998 145.131 Q891.933 144.852 891.736 144.409 Q891.556 143.967 891.277 143.573 Q890.998 143.18 890.49 142.901 Q889.998 142.606 889.375 142.606 Q888.358 142.606 887.342 143.458 Q886.325 144.295 885.62 145.59 Q884.964 146.836 884.341 149.246 Q883.735 151.656 883.735 152.886 Q883.735 154.099 884.259 155.034 Q884.784 155.968 885.915 155.968 Q887.227 155.968 888.637 154.755 Q890.096 153.493 890.342 152.41 L891.965 146 Q892.064 145.606 892.064 145.491 Z" fill="#000000" fill-rule="nonzero" fill-opacity="1" /><path clip-path="url(#clip380)" d="M929.553 111.389 Q926.451 116.713 924.946 121.922 Q923.441 127.13 923.441 132.477 Q923.441 137.824 924.946 143.079 Q926.474 148.311 929.553 153.611 L925.849 153.611 Q922.377 148.172 920.641 142.917 Q918.928 137.662 918.928 132.477 Q918.928 127.315 920.641 122.084 Q922.353 116.852 925.849 111.389 L929.553 111.389 Z" fill="#000000" fill-rule="nonzero" fill-opacity="1" /><path clip-path="url(#clip380)" d="M956.474 122.431 L956.474 126.412 Q954.668 125.417 952.839 124.931 Q951.034 124.422 949.182 124.422 Q945.039 124.422 942.747 127.061 Q940.455 129.676 940.455 134.422 Q940.455 139.167 942.747 141.806 Q945.039 144.422 949.182 144.422 Q951.034 144.422 952.839 143.936 Q954.668 143.426 956.474 142.431 L956.474 146.366 Q954.691 147.199 952.77 147.616 Q950.872 148.033 948.719 148.033 Q942.863 148.033 939.414 144.352 Q935.965 140.672 935.965 134.422 Q935.965 128.079 939.437 124.445 Q942.932 120.811 948.997 120.811 Q950.964 120.811 952.839 121.227 Q954.714 121.621 956.474 122.431 Z" fill="#000000" fill-rule="nonzero" fill-opacity="1" /><path clip-path="url(#clip380)" d="M973.927 124.422 Q970.501 124.422 968.511 127.107 Q966.52 129.769 966.52 134.422 Q966.52 139.074 968.487 141.76 Q970.478 144.422 973.927 144.422 Q977.33 144.422 979.321 141.736 Q981.311 139.051 981.311 134.422 Q981.311 129.815 979.321 127.13 Q977.33 124.422 973.927 124.422 M973.927 120.811 Q979.483 120.811 982.654 124.422 Q985.825 128.033 985.825 134.422 Q985.825 140.787 982.654 144.422 Q979.483 148.033 973.927 148.033 Q968.349 148.033 965.177 144.422 Q962.029 140.787 962.029 134.422 Q962.029 128.033 965.177 124.422 Q968.349 120.811 973.927 120.811 Z" fill="#000000" fill-rule="nonzero" fill-opacity="1" /><path clip-path="url(#clip380)" d="M1014.44 131.713 L1014.44 147.361 L1010.18 147.361 L1010.18 131.852 Q1010.18 128.172 1008.74 126.343 Q1007.31 124.514 1004.44 124.514 Q1000.99 124.514 998.997 126.713 Q997.006 128.912 997.006 132.709 L997.006 147.361 L992.723 147.361 L992.723 121.436 L997.006 121.436 L997.006 125.463 Q998.534 123.125 1000.59 121.968 Q1002.68 120.811 1005.39 120.811 Q1009.85 120.811 1012.14 123.588 Q1014.44 126.343 1014.44 131.713 Z" fill="#000000" fill-rule="nonzero" fill-opacity="1" /><path clip-path="url(#clip380)" d="M1022.93 121.436 L1027.19 121.436 L1027.19 147.824 Q1027.19 152.778 1025.29 155 Q1023.42 157.222 1019.23 157.222 L1017.61 157.222 L1017.61 153.611 L1018.74 153.611 Q1021.17 153.611 1022.05 152.477 Q1022.93 151.366 1022.93 147.824 L1022.93 121.436 M1022.93 111.343 L1027.19 111.343 L1027.19 116.737 L1022.93 116.737 L1022.93 111.343 Z" fill="#000000" fill-rule="nonzero" fill-opacity="1" /><path clip-path="url(#clip380)" d="M1058.28 133.334 L1058.28 135.417 L1038.7 135.417 Q1038.97 139.815 1041.33 142.13 Q1043.72 144.422 1047.95 144.422 Q1050.41 144.422 1052.7 143.82 Q1055.01 143.218 1057.28 142.014 L1057.28 146.042 Q1054.99 147.014 1052.58 147.523 Q1050.18 148.033 1047.7 148.033 Q1041.5 148.033 1037.86 144.422 Q1034.25 140.811 1034.25 134.653 Q1034.25 128.287 1037.68 124.561 Q1041.13 120.811 1046.96 120.811 Q1052.19 120.811 1055.22 124.19 Q1058.28 127.547 1058.28 133.334 M1054.02 132.084 Q1053.97 128.588 1052.05 126.505 Q1050.15 124.422 1047.01 124.422 Q1043.44 124.422 1041.29 126.436 Q1039.16 128.449 1038.83 132.107 L1054.02 132.084 Z" fill="#000000" fill-rule="nonzero" fill-opacity="1" /><path clip-path="url(#clip380)" d="M1083.93 122.431 L1083.93 126.412 Q1082.12 125.417 1080.29 124.931 Q1078.49 124.422 1076.64 124.422 Q1072.49 124.422 1070.2 127.061 Q1067.91 129.676 1067.91 134.422 Q1067.91 139.167 1070.2 141.806 Q1072.49 144.422 1076.64 144.422 Q1078.49 144.422 1080.29 143.936 Q1082.12 143.426 1083.93 142.431 L1083.93 146.366 Q1082.14 147.199 1080.22 147.616 Q1078.32 148.033 1076.17 148.033 Q1070.32 148.033 1066.87 144.352 Q1063.42 140.672 1063.42 134.422 Q1063.42 128.079 1066.89 124.445 Q1070.39 120.811 1076.45 120.811 Q1078.42 120.811 1080.29 121.227 Q1082.17 121.621 1083.93 122.431 Z" fill="#000000" fill-rule="nonzero" fill-opacity="1" /><path clip-path="url(#clip380)" d="M1095.55 114.075 L1095.55 121.436 L1104.32 121.436 L1104.32 124.746 L1095.55 124.746 L1095.55 138.82 Q1095.55 141.991 1096.4 142.894 Q1097.28 143.797 1099.95 143.797 L1104.32 143.797 L1104.32 147.361 L1099.95 147.361 Q1095.01 147.361 1093.14 145.533 Q1091.26 143.681 1091.26 138.82 L1091.26 124.746 L1088.14 124.746 L1088.14 121.436 L1091.26 121.436 L1091.26 114.075 L1095.55 114.075 Z" fill="#000000" fill-rule="nonzero" fill-opacity="1" /><path clip-path="url(#clip380)" d="M1109.48 137.13 L1109.48 121.436 L1113.74 121.436 L1113.74 136.968 Q1113.74 140.649 1115.18 142.5 Q1116.61 144.329 1119.48 144.329 Q1122.93 144.329 1124.92 142.13 Q1126.94 139.931 1126.94 136.135 L1126.94 121.436 L1131.19 121.436 L1131.19 147.361 L1126.94 147.361 L1126.94 143.38 Q1125.38 145.741 1123.32 146.898 Q1121.29 148.033 1118.58 148.033 Q1114.11 148.033 1111.8 145.255 Q1109.48 142.477 1109.48 137.13 M1120.2 120.811 L1120.2 120.811 Z" fill="#000000" fill-rule="nonzero" fill-opacity="1" /><path clip-path="url(#clip380)" d="M1154.99 125.417 Q1154.27 125 1153.42 124.815 Q1152.58 124.607 1151.57 124.607 Q1147.95 124.607 1146.01 126.968 Q1144.09 129.306 1144.09 133.704 L1144.09 147.361 L1139.81 147.361 L1139.81 121.436 L1144.09 121.436 L1144.09 125.463 Q1145.43 123.102 1147.58 121.968 Q1149.74 120.811 1152.82 120.811 Q1153.26 120.811 1153.79 120.88 Q1154.32 120.926 1154.97 121.042 L1154.99 125.417 Z" fill="#000000" fill-rule="nonzero" fill-opacity="1" /><path clip-path="url(#clip380)" d="M1180.59 133.334 L1180.59 135.417 L1161.01 135.417 Q1161.29 139.815 1163.65 142.13 Q1166.03 144.422 1170.27 144.422 Q1172.72 144.422 1175.01 143.82 Q1177.33 143.218 1179.6 142.014 L1179.6 146.042 Q1177.31 147.014 1174.9 147.523 Q1172.49 148.033 1170.01 148.033 Q1163.81 148.033 1160.18 144.422 Q1156.57 140.811 1156.57 134.653 Q1156.57 128.287 1159.99 124.561 Q1163.44 120.811 1169.27 120.811 Q1174.5 120.811 1177.54 124.19 Q1180.59 127.547 1180.59 133.334 M1176.33 132.084 Q1176.29 128.588 1174.37 126.505 Q1172.47 124.422 1169.32 124.422 Q1165.75 124.422 1163.6 126.436 Q1161.47 128.449 1161.15 132.107 L1176.33 132.084 Z" fill="#000000" fill-rule="nonzero" fill-opacity="1" /><path clip-path="url(#clip380)" d="M1204.64 125.371 L1204.64 111.343 L1208.9 111.343 L1208.9 147.361 L1204.64 147.361 L1204.64 143.473 Q1203.3 145.787 1201.24 146.922 Q1199.2 148.033 1196.33 148.033 Q1191.63 148.033 1188.67 144.283 Q1185.73 140.533 1185.73 134.422 Q1185.73 128.311 1188.67 124.561 Q1191.63 120.811 1196.33 120.811 Q1199.2 120.811 1201.24 121.945 Q1203.3 123.056 1204.64 125.371 M1190.13 134.422 Q1190.13 139.121 1192.05 141.806 Q1194 144.468 1197.38 144.468 Q1200.75 144.468 1202.7 141.806 Q1204.64 139.121 1204.64 134.422 Q1204.64 129.723 1202.7 127.061 Q1200.75 124.375 1197.38 124.375 Q1194 124.375 1192.05 127.061 Q1190.13 129.723 1190.13 134.422 Z" fill="#000000" fill-rule="nonzero" fill-opacity="1" /><path clip-path="url(#clip380)" d="M1217 111.389 L1220.71 111.389 Q1224.18 116.852 1225.89 122.084 Q1227.63 127.315 1227.63 132.477 Q1227.63 137.662 1225.89 142.917 Q1224.18 148.172 1220.71 153.611 L1217 153.611 Q1220.08 148.311 1221.59 143.079 Q1223.12 137.824 1223.12 132.477 Q1223.12 127.13 1221.59 121.922 Q1220.08 116.713 1217 111.389 Z" fill="#000000" fill-rule="nonzero" fill-opacity="1" /><polyline clip-path="url(#clip380)" style="stroke:#009af9; stroke-linecap:round; stroke-linejoin:round; stroke-width:4; stroke-opacity:1; fill:none" stroke-dasharray="16, 10" points="355.449,196.789 494.796,196.789 "/>
<path clip-path="url(#clip380)" d="M534.039 167.813 Q528.947 167.813 525.937 171.609 Q522.951 175.405 522.951 181.956 Q522.951 188.484 525.937 192.28 Q528.947 196.076 534.039 196.076 Q539.132 196.076 542.095 192.28 Q545.081 188.484 545.081 181.956 Q545.081 175.405 542.095 171.609 Q539.132 167.813 534.039 167.813 M534.039 164.016 Q541.308 164.016 545.659 168.901 Q550.011 173.762 550.011 181.956 Q550.011 190.127 545.659 195.012 Q541.308 199.873 534.039 199.873 Q526.747 199.873 522.373 195.012 Q518.021 190.151 518.021 181.956 Q518.021 173.762 522.373 168.901 Q526.747 164.016 534.039 164.016 Z" fill="#000000" fill-rule="nonzero" fill-opacity="1" /><path clip-path="url(#clip380)" d="M556.701 188.97 L556.701 173.276 L560.96 173.276 L560.96 188.808 Q560.96 192.489 562.395 194.34 Q563.831 196.169 566.701 196.169 Q570.15 196.169 572.141 193.97 Q574.155 191.771 574.155 187.975 L574.155 173.276 L578.414 173.276 L578.414 199.201 L574.155 199.201 L574.155 195.22 Q572.604 197.581 570.544 198.738 Q568.507 199.873 565.798 199.873 Q561.331 199.873 559.016 197.095 Q556.701 194.317 556.701 188.97 M567.419 172.651 L567.419 172.651 Z" fill="#000000" fill-rule="nonzero" fill-opacity="1" /><path clip-path="url(#clip380)" d="M602.21 177.257 Q601.492 176.84 600.636 176.655 Q599.803 176.447 598.784 176.447 Q595.173 176.447 593.229 178.808 Q591.307 181.146 591.307 185.544 L591.307 199.201 L587.025 199.201 L587.025 173.276 L591.307 173.276 L591.307 177.303 Q592.65 174.942 594.803 173.808 Q596.955 172.651 600.034 172.651 Q600.474 172.651 601.006 172.72 Q601.539 172.766 602.187 172.882 L602.21 177.257 Z" fill="#000000" fill-rule="nonzero" fill-opacity="1" /><path clip-path="url(#clip380)" d="M621.307 188.97 L621.307 173.276 L625.566 173.276 L625.566 188.808 Q625.566 192.489 627.002 194.34 Q628.437 196.169 631.307 196.169 Q634.756 196.169 636.747 193.97 Q638.761 191.771 638.761 187.975 L638.761 173.276 L643.02 173.276 L643.02 199.201 L638.761 199.201 L638.761 195.22 Q637.21 197.581 635.15 198.738 Q633.113 199.873 630.404 199.873 Q625.937 199.873 623.622 197.095 Q621.307 194.317 621.307 188.97 M632.025 172.651 L632.025 172.651 Z" fill="#000000" fill-rule="nonzero" fill-opacity="1" /><path clip-path="url(#clip380)" d="M655.913 195.313 L655.913 209.062 L651.631 209.062 L651.631 173.276 L655.913 173.276 L655.913 177.211 Q657.256 174.896 659.293 173.785 Q661.353 172.651 664.2 172.651 Q668.923 172.651 671.862 176.401 Q674.825 180.151 674.825 186.262 Q674.825 192.373 671.862 196.123 Q668.923 199.873 664.2 199.873 Q661.353 199.873 659.293 198.762 Q657.256 197.627 655.913 195.313 M670.404 186.262 Q670.404 181.563 668.46 178.901 Q666.538 176.215 663.159 176.215 Q659.779 176.215 657.835 178.901 Q655.913 181.563 655.913 186.262 Q655.913 190.961 657.835 193.646 Q659.779 196.308 663.159 196.308 Q666.538 196.308 668.46 193.646 Q670.404 190.961 670.404 186.262 Z" fill="#000000" fill-rule="nonzero" fill-opacity="1" /><path clip-path="url(#clip380)" d="M686.006 195.313 L686.006 209.062 L681.724 209.062 L681.724 173.276 L686.006 173.276 L686.006 177.211 Q687.348 174.896 689.386 173.785 Q691.446 172.651 694.293 172.651 Q699.015 172.651 701.955 176.401 Q704.918 180.151 704.918 186.262 Q704.918 192.373 701.955 196.123 Q699.015 199.873 694.293 199.873 Q691.446 199.873 689.386 198.762 Q687.348 197.627 686.006 195.313 M700.497 186.262 Q700.497 181.563 698.552 178.901 Q696.631 176.215 693.251 176.215 Q689.872 176.215 687.927 178.901 Q686.006 181.563 686.006 186.262 Q686.006 190.961 687.927 193.646 Q689.872 196.308 693.251 196.308 Q696.631 196.308 698.552 193.646 Q700.497 190.961 700.497 186.262 Z" fill="#000000" fill-rule="nonzero" fill-opacity="1" /><path clip-path="url(#clip380)" d="M734.154 185.174 L734.154 187.257 L714.571 187.257 Q714.848 191.655 717.209 193.97 Q719.594 196.262 723.83 196.262 Q726.283 196.262 728.575 195.66 Q730.89 195.058 733.158 193.854 L733.158 197.882 Q730.867 198.854 728.459 199.363 Q726.052 199.873 723.575 199.873 Q717.371 199.873 713.737 196.262 Q710.126 192.651 710.126 186.493 Q710.126 180.127 713.552 176.401 Q717.001 172.651 722.834 172.651 Q728.066 172.651 731.098 176.03 Q734.154 179.387 734.154 185.174 M729.895 183.924 Q729.848 180.428 727.927 178.345 Q726.029 176.262 722.881 176.262 Q719.316 176.262 717.163 178.276 Q715.034 180.289 714.709 183.947 L729.895 183.924 Z" fill="#000000" fill-rule="nonzero" fill-opacity="1" /><path clip-path="url(#clip380)" d="M756.168 177.257 Q755.45 176.84 754.593 176.655 Q753.76 176.447 752.742 176.447 Q749.131 176.447 747.186 178.808 Q745.265 181.146 745.265 185.544 L745.265 199.201 L740.982 199.201 L740.982 173.276 L745.265 173.276 L745.265 177.303 Q746.607 174.942 748.76 173.808 Q750.913 172.651 753.992 172.651 Q754.431 172.651 754.964 172.72 Q755.496 172.766 756.144 172.882 L756.168 177.257 Z" fill="#000000" fill-rule="nonzero" fill-opacity="1" /><path clip-path="url(#clip380)" d="M794.315 186.262 Q794.315 181.563 792.371 178.901 Q790.45 176.215 787.07 176.215 Q783.691 176.215 781.746 178.901 Q779.825 181.563 779.825 186.262 Q779.825 190.961 781.746 193.646 Q783.691 196.308 787.07 196.308 Q790.45 196.308 792.371 193.646 Q794.315 190.961 794.315 186.262 M779.825 177.211 Q781.167 174.896 783.204 173.785 Q785.265 172.651 788.112 172.651 Q792.834 172.651 795.774 176.401 Q798.737 180.151 798.737 186.262 Q798.737 192.373 795.774 196.123 Q792.834 199.873 788.112 199.873 Q785.265 199.873 783.204 198.762 Q781.167 197.627 779.825 195.313 L779.825 199.201 L775.542 199.201 L775.542 163.183 L779.825 163.183 L779.825 177.211 Z" fill="#000000" fill-rule="nonzero" fill-opacity="1" /><path clip-path="url(#clip380)" d="M815.843 176.262 Q812.417 176.262 810.427 178.947 Q808.436 181.609 808.436 186.262 Q808.436 190.914 810.403 193.6 Q812.394 196.262 815.843 196.262 Q819.246 196.262 821.237 193.576 Q823.227 190.891 823.227 186.262 Q823.227 181.655 821.237 178.97 Q819.246 176.262 815.843 176.262 M815.843 172.651 Q821.399 172.651 824.57 176.262 Q827.741 179.873 827.741 186.262 Q827.741 192.627 824.57 196.262 Q821.399 199.873 815.843 199.873 Q810.264 199.873 807.093 196.262 Q803.945 192.627 803.945 186.262 Q803.945 179.873 807.093 176.262 Q810.264 172.651 815.843 172.651 Z" fill="#000000" fill-rule="nonzero" fill-opacity="1" /><path clip-path="url(#clip380)" d="M834.362 188.97 L834.362 173.276 L838.621 173.276 L838.621 188.808 Q838.621 192.489 840.056 194.34 Q841.491 196.169 844.362 196.169 Q847.811 196.169 849.801 193.97 Q851.815 191.771 851.815 187.975 L851.815 173.276 L856.074 173.276 L856.074 199.201 L851.815 199.201 L851.815 195.22 Q850.264 197.581 848.204 198.738 Q846.167 199.873 843.459 199.873 Q838.991 199.873 836.676 197.095 Q834.362 194.317 834.362 188.97 M845.079 172.651 L845.079 172.651 Z" fill="#000000" fill-rule="nonzero" fill-opacity="1" /><path clip-path="url(#clip380)" d="M886.398 183.553 L886.398 199.201 L882.139 199.201 L882.139 183.692 Q882.139 180.012 880.704 178.183 Q879.269 176.354 876.398 176.354 Q872.949 176.354 870.959 178.553 Q868.968 180.752 868.968 184.549 L868.968 199.201 L864.685 199.201 L864.685 173.276 L868.968 173.276 L868.968 177.303 Q870.496 174.965 872.556 173.808 Q874.639 172.651 877.347 172.651 Q881.815 172.651 884.107 175.428 Q886.398 178.183 886.398 183.553 Z" fill="#000000" fill-rule="nonzero" fill-opacity="1" /><path clip-path="url(#clip380)" d="M911.954 177.211 L911.954 163.183 L916.213 163.183 L916.213 199.201 L911.954 199.201 L911.954 195.313 Q910.611 197.627 908.551 198.762 Q906.514 199.873 903.644 199.873 Q898.945 199.873 895.982 196.123 Q893.042 192.373 893.042 186.262 Q893.042 180.151 895.982 176.401 Q898.945 172.651 903.644 172.651 Q906.514 172.651 908.551 173.785 Q910.611 174.896 911.954 177.211 M897.44 186.262 Q897.44 190.961 899.361 193.646 Q901.306 196.308 904.685 196.308 Q908.065 196.308 910.009 193.646 Q911.954 190.961 911.954 186.262 Q911.954 181.563 910.009 178.901 Q908.065 176.215 904.685 176.215 Q901.306 176.215 899.361 178.901 Q897.44 181.563 897.44 186.262 Z" fill="#000000" fill-rule="nonzero" fill-opacity="1" /><path clip-path="url(#clip380)" d="M953.18 163.183 L953.18 166.725 L949.106 166.725 Q946.815 166.725 945.912 167.651 Q945.032 168.577 945.032 170.984 L945.032 173.276 L952.046 173.276 L952.046 176.586 L945.032 176.586 L945.032 199.201 L940.75 199.201 L940.75 176.586 L936.676 176.586 L936.676 173.276 L940.75 173.276 L940.75 171.47 Q940.75 167.141 942.764 165.174 Q944.778 163.183 949.153 163.183 L953.18 163.183 Z" fill="#000000" fill-rule="nonzero" fill-opacity="1" /><path clip-path="url(#clip380)" d="M966.791 176.262 Q963.366 176.262 961.375 178.947 Q959.384 181.609 959.384 186.262 Q959.384 190.914 961.352 193.6 Q963.342 196.262 966.791 196.262 Q970.194 196.262 972.185 193.576 Q974.176 190.891 974.176 186.262 Q974.176 181.655 972.185 178.97 Q970.194 176.262 966.791 176.262 M966.791 172.651 Q972.347 172.651 975.518 176.262 Q978.69 179.873 978.69 186.262 Q978.69 192.627 975.518 196.262 Q972.347 199.873 966.791 199.873 Q961.213 199.873 958.041 196.262 Q954.893 192.627 954.893 186.262 Q954.893 179.873 958.041 176.262 Q961.213 172.651 966.791 172.651 Z" fill="#000000" fill-rule="nonzero" fill-opacity="1" /><path clip-path="url(#clip380)" d="M1000.77 177.257 Q1000.06 176.84 999.199 176.655 Q998.365 176.447 997.347 176.447 Q993.736 176.447 991.791 178.808 Q989.87 181.146 989.87 185.544 L989.87 199.201 L985.588 199.201 L985.588 173.276 L989.87 173.276 L989.87 177.303 Q991.213 174.942 993.365 173.808 Q995.518 172.651 998.597 172.651 Q999.037 172.651 999.569 172.72 Q1000.1 172.766 1000.75 172.882 L1000.77 177.257 Z" fill="#000000" fill-rule="nonzero" fill-opacity="1" /><path clip-path="url(#clip380)" d="M1055.14 192.339 Q1055.14 192.526 1054.93 193.252 Q1054.72 193.978 1054.21 195.103 Q1053.72 196.227 1053.01 197.257 Q1052.33 198.265 1051.21 199.014 Q1050.11 199.74 1048.84 199.74 Q1047.16 199.74 1046.03 198.616 Q1044.91 197.492 1044.91 195.805 Q1044.91 194.892 1045.54 193.158 Q1048.52 185.242 1048.52 182.408 Q1048.52 179.058 1045.92 179.058 Q1044.44 179.058 1043.11 179.667 Q1041.77 180.276 1040.9 181.119 Q1040.04 181.963 1039.36 182.923 Q1038.68 183.883 1038.37 184.516 Q1038.09 185.148 1038.02 185.429 L1035.14 197 Q1034.91 197.983 1034.74 198.452 Q1034.58 198.92 1034.14 199.319 Q1033.69 199.74 1032.99 199.74 Q1032.4 199.74 1031.98 199.389 Q1031.58 199.037 1031.58 198.428 Q1031.58 198.335 1031.7 197.843 Q1031.82 197.351 1031.98 196.672 Q1032.14 195.993 1032.21 195.594 Q1033.06 192.409 1033.17 191.964 L1034.51 186.389 Q1035.24 183.626 1035.24 182.408 Q1035.24 179.058 1032.64 179.058 Q1031.35 179.058 1030.13 179.55 Q1028.94 180.018 1028.12 180.674 Q1027.3 181.33 1026.55 182.244 Q1025.82 183.134 1025.45 183.743 Q1025.09 184.328 1024.81 184.914 L1024.2 187.303 Q1024.06 187.959 1023.38 190.512 L1022.33 194.845 Q1021.58 198.077 1021.42 198.382 Q1021.18 199.037 1020.67 199.389 Q1020.15 199.74 1019.64 199.74 Q1019.05 199.74 1018.65 199.389 Q1018.25 199.037 1018.25 198.428 Q1018.25 198.335 1018.32 197.983 Q1018.4 197.632 1018.51 197.14 Q1018.63 196.648 1018.68 196.367 L1021.46 185.288 Q1021.98 183.274 1022.1 182.642 Q1022.24 181.986 1022.24 181.26 Q1022.24 179.058 1020.74 179.058 Q1019.52 179.058 1018.72 180.51 Q1017.93 181.963 1017.25 184.773 Q1017.04 185.546 1016.9 185.71 Q1016.78 185.874 1016.43 185.874 Q1015.84 185.851 1015.84 185.382 Q1015.84 185.265 1016.03 184.516 Q1016.22 183.766 1016.57 182.642 Q1016.94 181.494 1017.34 180.745 Q1017.58 180.253 1017.79 179.925 Q1018 179.597 1018.42 179.082 Q1018.84 178.566 1019.47 178.285 Q1020.1 178.004 1020.88 178.004 Q1022.59 178.004 1023.85 179.105 Q1025.14 180.206 1025.3 182.173 Q1028.42 178.004 1032.78 178.004 Q1035.24 178.004 1036.71 179.246 Q1038.09 180.44 1038.26 182.642 Q1041.49 178.004 1046.08 178.004 Q1048.73 178.004 1050.16 179.386 Q1051.58 180.745 1051.58 183.134 Q1051.58 184.375 1050.95 186.741 Q1050.32 189.083 1049.9 190.254 Q1049.48 191.425 1048.66 193.674 Q1047.79 195.829 1047.79 197.093 Q1047.79 197.913 1048.07 198.288 Q1048.35 198.663 1048.96 198.663 Q1049.9 198.663 1050.72 198.124 Q1051.54 197.562 1052.12 196.648 Q1052.73 195.711 1053.13 194.775 Q1053.53 193.814 1053.83 192.737 Q1054.02 192.151 1054.11 192.011 Q1054.23 191.87 1054.56 191.87 Q1055.14 191.87 1055.14 192.339 Z" fill="#000000" fill-rule="nonzero" fill-opacity="1" /><path clip-path="url(#clip380)" d="M1075.28 195.282 Q1075.28 195.298 1075.18 195.889 L1071.44 210.792 Q1071.25 211.579 1070.69 212.366 Q1070.15 213.17 1069.28 213.858 Q1068.43 214.563 1067.12 214.99 Q1065.82 215.432 1064.33 215.432 Q1061.95 215.432 1060.9 214.924 Q1059.87 214.432 1059.87 213.383 Q1059.87 212.465 1060.44 211.94 Q1061.02 211.432 1061.67 211.432 Q1062.29 211.432 1062.62 211.792 Q1062.95 212.153 1062.95 212.612 Q1062.95 213.121 1062.61 213.629 Q1062.26 214.153 1061.57 214.35 Q1062.67 214.695 1064.26 214.695 Q1067.62 214.695 1069.07 211.137 Q1069.1 211.087 1069.1 211.071 L1070.21 206.628 L1070.16 206.595 Q1069.89 206.923 1069.44 207.3 Q1069.02 207.661 1068.1 208.103 Q1067.18 208.546 1066.28 208.546 Q1064.39 208.546 1063.1 207.103 Q1061.82 205.644 1061.82 203.234 Q1061.82 201.48 1062.52 199.725 Q1063.25 197.954 1064.36 196.659 Q1065.49 195.348 1066.93 194.528 Q1068.39 193.708 1069.8 193.708 Q1070.79 193.708 1071.62 194.298 Q1072.46 194.872 1072.92 195.823 Q1073 195.036 1073.44 194.708 Q1073.9 194.38 1074.3 194.38 Q1074.74 194.38 1075 194.626 Q1075.28 194.856 1075.28 195.282 M1072.53 197.331 Q1072.53 197.233 1072.46 196.971 Q1072.39 196.692 1072.2 196.249 Q1072.02 195.807 1071.74 195.413 Q1071.46 195.02 1070.95 194.741 Q1070.46 194.446 1069.84 194.446 Q1068.82 194.446 1067.8 195.298 Q1066.79 196.135 1066.08 197.43 Q1065.43 198.676 1064.8 201.086 Q1064.2 203.496 1064.2 204.726 Q1064.2 205.939 1064.72 206.874 Q1065.25 207.808 1066.38 207.808 Q1067.69 207.808 1069.1 206.595 Q1070.56 205.333 1070.8 204.25 L1072.43 197.84 Q1072.53 197.446 1072.53 197.331 Z" fill="#000000" fill-rule="nonzero" fill-opacity="1" /><polyline clip-path="url(#clip380)" style="stroke:#009af9; stroke-linecap:round; stroke-linejoin:round; stroke-width:4; stroke-opacity:1; fill:none" stroke-dasharray="16, 10" points="355.449,248.629 494.796,248.629 "/>
<path clip-path="url(#clip380)" d="M534.039 234.52 Q528.947 234.52 525.937 238.316 Q522.951 242.112 522.951 248.663 Q522.951 255.191 525.937 258.987 Q528.947 262.784 534.039 262.784 Q539.132 262.784 542.095 258.987 Q545.081 255.191 545.081 248.663 Q545.081 242.112 542.095 238.316 Q539.132 234.52 534.039 234.52 M534.039 230.724 Q541.308 230.724 545.659 235.608 Q550.011 240.469 550.011 248.663 Q550.011 256.835 545.659 261.719 Q541.308 266.58 534.039 266.58 Q526.747 266.58 522.373 261.719 Q518.021 256.858 518.021 248.663 Q518.021 240.469 522.373 235.608 Q526.747 230.724 534.039 230.724 Z" fill="#000000" fill-rule="nonzero" fill-opacity="1" /><path clip-path="url(#clip380)" d="M556.701 255.677 L556.701 239.983 L560.96 239.983 L560.96 255.515 Q560.96 259.196 562.395 261.048 Q563.831 262.876 566.701 262.876 Q570.15 262.876 572.141 260.677 Q574.155 258.478 574.155 254.682 L574.155 239.983 L578.414 239.983 L578.414 265.909 L574.155 265.909 L574.155 261.927 Q572.604 264.288 570.544 265.446 Q568.507 266.58 565.798 266.58 Q561.331 266.58 559.016 263.802 Q556.701 261.024 556.701 255.677 M567.419 239.358 L567.419 239.358 Z" fill="#000000" fill-rule="nonzero" fill-opacity="1" /><path clip-path="url(#clip380)" d="M602.21 243.964 Q601.492 243.548 600.636 243.362 Q599.803 243.154 598.784 243.154 Q595.173 243.154 593.229 245.515 Q591.307 247.853 591.307 252.251 L591.307 265.909 L587.025 265.909 L587.025 239.983 L591.307 239.983 L591.307 244.011 Q592.65 241.649 594.803 240.515 Q596.955 239.358 600.034 239.358 Q600.474 239.358 601.006 239.427 Q601.539 239.474 602.187 239.589 L602.21 243.964 Z" fill="#000000" fill-rule="nonzero" fill-opacity="1" /><path clip-path="url(#clip380)" d="M621.747 239.983 L626.006 239.983 L626.006 265.909 L621.747 265.909 L621.747 239.983 M621.747 229.89 L626.006 229.89 L626.006 235.284 L621.747 235.284 L621.747 229.89 Z" fill="#000000" fill-rule="nonzero" fill-opacity="1" /><path clip-path="url(#clip380)" d="M651.978 243.918 L651.978 229.89 L656.238 229.89 L656.238 265.909 L651.978 265.909 L651.978 262.02 Q650.636 264.335 648.576 265.469 Q646.539 266.58 643.668 266.58 Q638.969 266.58 636.006 262.83 Q633.066 259.08 633.066 252.969 Q633.066 246.858 636.006 243.108 Q638.969 239.358 643.668 239.358 Q646.539 239.358 648.576 240.492 Q650.636 241.603 651.978 243.918 M637.464 252.969 Q637.464 257.668 639.386 260.353 Q641.33 263.015 644.71 263.015 Q648.089 263.015 650.034 260.353 Q651.978 257.668 651.978 252.969 Q651.978 248.27 650.034 245.608 Q648.089 242.923 644.71 242.923 Q641.33 242.923 639.386 245.608 Q637.464 248.27 637.464 252.969 Z" fill="#000000" fill-rule="nonzero" fill-opacity="1" /><path clip-path="url(#clip380)" d="M687.186 251.881 L687.186 253.964 L667.603 253.964 Q667.881 258.362 670.242 260.677 Q672.626 262.969 676.862 262.969 Q679.316 262.969 681.608 262.367 Q683.923 261.765 686.191 260.561 L686.191 264.589 Q683.899 265.561 681.492 266.071 Q679.085 266.58 676.608 266.58 Q670.404 266.58 666.77 262.969 Q663.159 259.358 663.159 253.2 Q663.159 246.835 666.585 243.108 Q670.034 239.358 675.867 239.358 Q681.099 239.358 684.131 242.737 Q687.186 246.094 687.186 251.881 M682.927 250.631 Q682.881 247.136 680.96 245.052 Q679.061 242.969 675.913 242.969 Q672.349 242.969 670.196 244.983 Q668.066 246.997 667.742 250.654 L682.927 250.631 Z" fill="#000000" fill-rule="nonzero" fill-opacity="1" /><path clip-path="url(#clip380)" d="M715.728 250.261 L715.728 265.909 L711.469 265.909 L711.469 250.399 Q711.469 246.719 710.034 244.89 Q708.598 243.062 705.728 243.062 Q702.279 243.062 700.288 245.261 Q698.297 247.46 698.297 251.256 L698.297 265.909 L694.015 265.909 L694.015 239.983 L698.297 239.983 L698.297 244.011 Q699.825 241.673 701.885 240.515 Q703.969 239.358 706.677 239.358 Q711.145 239.358 713.436 242.136 Q715.728 244.89 715.728 250.261 Z" fill="#000000" fill-rule="nonzero" fill-opacity="1" /><path clip-path="url(#clip380)" d="M728.436 232.622 L728.436 239.983 L737.209 239.983 L737.209 243.293 L728.436 243.293 L728.436 257.367 Q728.436 260.538 729.293 261.441 Q730.172 262.344 732.834 262.344 L737.209 262.344 L737.209 265.909 L732.834 265.909 Q727.904 265.909 726.029 264.08 Q724.154 262.228 724.154 257.367 L724.154 243.293 L721.029 243.293 L721.029 239.983 L724.154 239.983 L724.154 232.622 L728.436 232.622 Z" fill="#000000" fill-rule="nonzero" fill-opacity="1" /><path clip-path="url(#clip380)" d="M742.811 239.983 L747.07 239.983 L747.07 265.909 L742.811 265.909 L742.811 239.983 M742.811 229.89 L747.07 229.89 L747.07 235.284 L742.811 235.284 L742.811 229.89 Z" fill="#000000" fill-rule="nonzero" fill-opacity="1" /><path clip-path="url(#clip380)" d="M769.107 229.89 L769.107 233.432 L765.033 233.432 Q762.742 233.432 761.839 234.358 Q760.959 235.284 760.959 237.691 L760.959 239.983 L767.973 239.983 L767.973 243.293 L760.959 243.293 L760.959 265.909 L756.677 265.909 L756.677 243.293 L752.603 243.293 L752.603 239.983 L756.677 239.983 L756.677 238.177 Q756.677 233.849 758.691 231.881 Q760.705 229.89 765.08 229.89 L769.107 229.89 Z" fill="#000000" fill-rule="nonzero" fill-opacity="1" /><path clip-path="url(#clip380)" d="M772.672 239.983 L776.931 239.983 L776.931 265.909 L772.672 265.909 L772.672 239.983 M772.672 229.89 L776.931 229.89 L776.931 235.284 L772.672 235.284 L772.672 229.89 Z" fill="#000000" fill-rule="nonzero" fill-opacity="1" /><path clip-path="url(#clip380)" d="M797.626 252.876 Q792.464 252.876 790.473 254.057 Q788.482 255.237 788.482 258.085 Q788.482 260.353 789.964 261.696 Q791.468 263.015 794.038 263.015 Q797.579 263.015 799.709 260.515 Q801.862 257.992 801.862 253.825 L801.862 252.876 L797.626 252.876 M806.121 251.117 L806.121 265.909 L801.862 265.909 L801.862 261.973 Q800.403 264.335 798.228 265.469 Q796.052 266.58 792.903 266.58 Q788.922 266.58 786.561 264.358 Q784.223 262.112 784.223 258.362 Q784.223 253.987 787.14 251.765 Q790.079 249.543 795.89 249.543 L801.862 249.543 L801.862 249.126 Q801.862 246.187 799.917 244.589 Q797.996 242.969 794.501 242.969 Q792.278 242.969 790.172 243.501 Q788.066 244.034 786.121 245.099 L786.121 241.163 Q788.459 240.261 790.658 239.821 Q792.857 239.358 794.94 239.358 Q800.565 239.358 803.343 242.274 Q806.121 245.191 806.121 251.117 Z" fill="#000000" fill-rule="nonzero" fill-opacity="1" /><path clip-path="url(#clip380)" d="M833.505 252.969 Q833.505 248.27 831.561 245.608 Q829.639 242.923 826.26 242.923 Q822.88 242.923 820.936 245.608 Q819.014 248.27 819.014 252.969 Q819.014 257.668 820.936 260.353 Q822.88 263.015 826.26 263.015 Q829.639 263.015 831.561 260.353 Q833.505 257.668 833.505 252.969 M819.014 243.918 Q820.357 241.603 822.394 240.492 Q824.454 239.358 827.301 239.358 Q832.024 239.358 834.963 243.108 Q837.926 246.858 837.926 252.969 Q837.926 259.08 834.963 262.83 Q832.024 266.58 827.301 266.58 Q824.454 266.58 822.394 265.469 Q820.357 264.335 819.014 262.02 L819.014 265.909 L814.732 265.909 L814.732 229.89 L819.014 229.89 L819.014 243.918 Z" fill="#000000" fill-rule="nonzero" fill-opacity="1" /><path clip-path="url(#clip380)" d="M844.987 239.983 L849.246 239.983 L849.246 265.909 L844.987 265.909 L844.987 239.983 M844.987 229.89 L849.246 229.89 L849.246 235.284 L844.987 235.284 L844.987 229.89 Z" fill="#000000" fill-rule="nonzero" fill-opacity="1" /><path clip-path="url(#clip380)" d="M858.158 229.89 L862.417 229.89 L862.417 265.909 L858.158 265.909 L858.158 229.89 Z" fill="#000000" fill-rule="nonzero" fill-opacity="1" /><path clip-path="url(#clip380)" d="M871.329 239.983 L875.588 239.983 L875.588 265.909 L871.329 265.909 L871.329 239.983 M871.329 229.89 L875.588 229.89 L875.588 235.284 L871.329 235.284 L871.329 229.89 Z" fill="#000000" fill-rule="nonzero" fill-opacity="1" /><path clip-path="url(#clip380)" d="M888.713 232.622 L888.713 239.983 L897.486 239.983 L897.486 243.293 L888.713 243.293 L888.713 257.367 Q888.713 260.538 889.57 261.441 Q890.449 262.344 893.111 262.344 L897.486 262.344 L897.486 265.909 L893.111 265.909 Q888.181 265.909 886.306 264.08 Q884.431 262.228 884.431 257.367 L884.431 243.293 L881.306 243.293 L881.306 239.983 L884.431 239.983 L884.431 232.622 L888.713 232.622 Z" fill="#000000" fill-rule="nonzero" fill-opacity="1" /><path clip-path="url(#clip380)" d="M913.875 268.316 Q912.069 272.946 910.357 274.358 Q908.644 275.77 905.773 275.77 L902.37 275.77 L902.37 272.205 L904.87 272.205 Q906.63 272.205 907.602 271.372 Q908.574 270.538 909.755 267.436 L910.519 265.492 L900.033 239.983 L904.546 239.983 L912.648 260.261 L920.75 239.983 L925.264 239.983 L913.875 268.316 Z" fill="#000000" fill-rule="nonzero" fill-opacity="1" /><path clip-path="url(#clip380)" d="M964.824 252.969 Q964.824 248.27 962.879 245.608 Q960.958 242.923 957.579 242.923 Q954.199 242.923 952.254 245.608 Q950.333 248.27 950.333 252.969 Q950.333 257.668 952.254 260.353 Q954.199 263.015 957.579 263.015 Q960.958 263.015 962.879 260.353 Q964.824 257.668 964.824 252.969 M950.333 243.918 Q951.676 241.603 953.713 240.492 Q955.773 239.358 958.62 239.358 Q963.342 239.358 966.282 243.108 Q969.245 246.858 969.245 252.969 Q969.245 259.08 966.282 262.83 Q963.342 266.58 958.62 266.58 Q955.773 266.58 953.713 265.469 Q951.676 264.335 950.333 262.02 L950.333 265.909 L946.051 265.909 L946.051 229.89 L950.333 229.89 L950.333 243.918 Z" fill="#000000" fill-rule="nonzero" fill-opacity="1" /><path clip-path="url(#clip380)" d="M986.352 242.969 Q982.926 242.969 980.935 245.654 Q978.944 248.316 978.944 252.969 Q978.944 257.622 980.912 260.307 Q982.902 262.969 986.352 262.969 Q989.754 262.969 991.745 260.284 Q993.736 257.598 993.736 252.969 Q993.736 248.362 991.745 245.677 Q989.754 242.969 986.352 242.969 M986.352 239.358 Q991.907 239.358 995.078 242.969 Q998.25 246.58 998.25 252.969 Q998.25 259.335 995.078 262.969 Q991.907 266.58 986.352 266.58 Q980.773 266.58 977.602 262.969 Q974.453 259.335 974.453 252.969 Q974.453 246.58 977.602 242.969 Q980.773 239.358 986.352 239.358 Z" fill="#000000" fill-rule="nonzero" fill-opacity="1" /><path clip-path="url(#clip380)" d="M1004.87 255.677 L1004.87 239.983 L1009.13 239.983 L1009.13 255.515 Q1009.13 259.196 1010.56 261.048 Q1012 262.876 1014.87 262.876 Q1018.32 262.876 1020.31 260.677 Q1022.32 258.478 1022.32 254.682 L1022.32 239.983 L1026.58 239.983 L1026.58 265.909 L1022.32 265.909 L1022.32 261.927 Q1020.77 264.288 1018.71 265.446 Q1016.68 266.58 1013.97 266.58 Q1009.5 266.58 1007.18 263.802 Q1004.87 261.024 1004.87 255.677 M1015.59 239.358 L1015.59 239.358 Z" fill="#000000" fill-rule="nonzero" fill-opacity="1" /><path clip-path="url(#clip380)" d="M1056.91 250.261 L1056.91 265.909 L1052.65 265.909 L1052.65 250.399 Q1052.65 246.719 1051.21 244.89 Q1049.78 243.062 1046.91 243.062 Q1043.46 243.062 1041.47 245.261 Q1039.48 247.46 1039.48 251.256 L1039.48 265.909 L1035.19 265.909 L1035.19 239.983 L1039.48 239.983 L1039.48 244.011 Q1041 241.673 1043.06 240.515 Q1045.15 239.358 1047.86 239.358 Q1052.32 239.358 1054.62 242.136 Q1056.91 244.89 1056.91 250.261 Z" fill="#000000" fill-rule="nonzero" fill-opacity="1" /><path clip-path="url(#clip380)" d="M1082.46 243.918 L1082.46 229.89 L1086.72 229.89 L1086.72 265.909 L1082.46 265.909 L1082.46 262.02 Q1081.12 264.335 1079.06 265.469 Q1077.02 266.58 1074.15 266.58 Q1069.45 266.58 1066.49 262.83 Q1063.55 259.08 1063.55 252.969 Q1063.55 246.858 1066.49 243.108 Q1069.45 239.358 1074.15 239.358 Q1077.02 239.358 1079.06 240.492 Q1081.12 241.603 1082.46 243.918 M1067.95 252.969 Q1067.95 257.668 1069.87 260.353 Q1071.81 263.015 1075.19 263.015 Q1078.57 263.015 1080.52 260.353 Q1082.46 257.668 1082.46 252.969 Q1082.46 248.27 1080.52 245.608 Q1078.57 242.923 1075.19 242.923 Q1071.81 242.923 1069.87 245.608 Q1067.95 248.27 1067.95 252.969 Z" fill="#000000" fill-rule="nonzero" fill-opacity="1" /><polyline clip-path="url(#clip380)" style="stroke:#008000; stroke-linecap:round; stroke-linejoin:round; stroke-width:4; stroke-opacity:1; fill:none" stroke-dasharray="16, 10" points="355.449,300.469 494.796,300.469 "/>
<path clip-path="url(#clip380)" d="M518.021 283.189 L522.697 283.189 L522.697 313.813 L539.525 313.813 L539.525 317.749 L518.021 317.749 L518.021 283.189 Z" fill="#000000" fill-rule="nonzero" fill-opacity="1" /><path clip-path="url(#clip380)" d="M556.03 304.716 Q550.868 304.716 548.877 305.897 Q546.886 307.077 546.886 309.925 Q546.886 312.193 548.368 313.536 Q549.872 314.855 552.442 314.855 Q555.983 314.855 558.113 312.355 Q560.266 309.832 560.266 305.665 L560.266 304.716 L556.03 304.716 M564.525 302.957 L564.525 317.749 L560.266 317.749 L560.266 313.813 Q558.808 316.175 556.632 317.309 Q554.456 318.42 551.308 318.42 Q547.326 318.42 544.965 316.198 Q542.627 313.952 542.627 310.202 Q542.627 305.827 545.544 303.605 Q548.483 301.383 554.294 301.383 L560.266 301.383 L560.266 300.966 Q560.266 298.027 558.321 296.429 Q556.4 294.809 552.905 294.809 Q550.683 294.809 548.576 295.341 Q546.47 295.874 544.525 296.939 L544.525 293.003 Q546.863 292.101 549.062 291.661 Q551.261 291.198 553.345 291.198 Q558.97 291.198 561.747 294.114 Q564.525 297.031 564.525 302.957 Z" fill="#000000" fill-rule="nonzero" fill-opacity="1" /><path clip-path="url(#clip380)" d="M586.423 281.73 L586.423 285.272 L582.349 285.272 Q580.057 285.272 579.155 286.198 Q578.275 287.124 578.275 289.531 L578.275 291.823 L585.289 291.823 L585.289 295.133 L578.275 295.133 L578.275 317.749 L573.993 317.749 L573.993 295.133 L569.919 295.133 L569.919 291.823 L573.993 291.823 L573.993 290.017 Q573.993 285.689 576.006 283.721 Q578.02 281.73 582.395 281.73 L586.423 281.73 Z" fill="#000000" fill-rule="nonzero" fill-opacity="1" /><path clip-path="url(#clip380)" d="M601.77 304.716 Q596.608 304.716 594.617 305.897 Q592.627 307.077 592.627 309.925 Q592.627 312.193 594.108 313.536 Q595.613 314.855 598.182 314.855 Q601.724 314.855 603.854 312.355 Q606.006 309.832 606.006 305.665 L606.006 304.716 L601.77 304.716 M610.266 302.957 L610.266 317.749 L606.006 317.749 L606.006 313.813 Q604.548 316.175 602.372 317.309 Q600.196 318.42 597.048 318.42 Q593.067 318.42 590.705 316.198 Q588.368 313.952 588.368 310.202 Q588.368 305.827 591.284 303.605 Q594.224 301.383 600.034 301.383 L606.006 301.383 L606.006 300.966 Q606.006 298.027 604.062 296.429 Q602.141 294.809 598.645 294.809 Q596.423 294.809 594.317 295.341 Q592.21 295.874 590.266 296.939 L590.266 293.003 Q592.604 292.101 594.803 291.661 Q597.002 291.198 599.085 291.198 Q604.71 291.198 607.488 294.114 Q610.266 297.031 610.266 302.957 Z" fill="#000000" fill-rule="nonzero" fill-opacity="1" /><path clip-path="url(#clip380)" d="M637.696 292.818 L637.696 296.8 Q635.89 295.804 634.062 295.318 Q632.256 294.809 630.404 294.809 Q626.261 294.809 623.969 297.448 Q621.678 300.064 621.678 304.809 Q621.678 309.554 623.969 312.193 Q626.261 314.809 630.404 314.809 Q632.256 314.809 634.062 314.323 Q635.89 313.813 637.696 312.818 L637.696 316.753 Q635.914 317.587 633.992 318.003 Q632.094 318.42 629.941 318.42 Q624.085 318.42 620.636 314.739 Q617.187 311.059 617.187 304.809 Q617.187 298.466 620.659 294.832 Q624.154 291.198 630.219 291.198 Q632.187 291.198 634.062 291.615 Q635.937 292.008 637.696 292.818 Z" fill="#000000" fill-rule="nonzero" fill-opacity="1" /><path clip-path="url(#clip380)" d="M667.279 303.721 L667.279 305.804 L647.696 305.804 Q647.974 310.202 650.335 312.517 Q652.719 314.809 656.955 314.809 Q659.409 314.809 661.7 314.207 Q664.015 313.605 666.284 312.401 L666.284 316.429 Q663.992 317.401 661.585 317.911 Q659.177 318.42 656.7 318.42 Q650.497 318.42 646.863 314.809 Q643.251 311.198 643.251 305.04 Q643.251 298.675 646.677 294.948 Q650.126 291.198 655.96 291.198 Q661.191 291.198 664.224 294.577 Q667.279 297.934 667.279 303.721 M663.02 302.471 Q662.974 298.976 661.052 296.892 Q659.154 294.809 656.006 294.809 Q652.441 294.809 650.288 296.823 Q648.159 298.837 647.835 302.494 L663.02 302.471 Z" fill="#000000" fill-rule="nonzero" fill-opacity="1" /><path clip-path="url(#clip380)" d="M672.117 302.864 L684.594 302.864 L684.594 306.661 L672.117 306.661 L672.117 302.864 Z" fill="#000000" fill-rule="nonzero" fill-opacity="1" /><path clip-path="url(#clip380)" d="M691.561 283.189 L698.529 283.189 L707.348 306.707 L716.214 283.189 L723.182 283.189 L723.182 317.749 L718.621 317.749 L718.621 287.402 L709.709 311.105 L705.01 311.105 L696.098 287.402 L696.098 317.749 L691.561 317.749 L691.561 283.189 Z" fill="#000000" fill-rule="nonzero" fill-opacity="1" /><path clip-path="url(#clip380)" d="M744.061 304.716 Q738.899 304.716 736.908 305.897 Q734.918 307.077 734.918 309.925 Q734.918 312.193 736.399 313.536 Q737.904 314.855 740.473 314.855 Q744.015 314.855 746.144 312.355 Q748.297 309.832 748.297 305.665 L748.297 304.716 L744.061 304.716 M752.556 302.957 L752.556 317.749 L748.297 317.749 L748.297 313.813 Q746.839 316.175 744.663 317.309 Q742.487 318.42 739.339 318.42 Q735.357 318.42 732.996 316.198 Q730.658 313.952 730.658 310.202 Q730.658 305.827 733.575 303.605 Q736.515 301.383 742.325 301.383 L748.297 301.383 L748.297 300.966 Q748.297 298.027 746.353 296.429 Q744.432 294.809 740.936 294.809 Q738.714 294.809 736.607 295.341 Q734.501 295.874 732.557 296.939 L732.557 293.003 Q734.895 292.101 737.094 291.661 Q739.293 291.198 741.376 291.198 Q747.001 291.198 749.779 294.114 Q752.556 297.031 752.556 302.957 Z" fill="#000000" fill-rule="nonzero" fill-opacity="1" /><path clip-path="url(#clip380)" d="M777.857 292.587 L777.857 296.614 Q776.052 295.689 774.107 295.226 Q772.163 294.763 770.08 294.763 Q766.908 294.763 765.311 295.735 Q763.737 296.707 763.737 298.651 Q763.737 300.133 764.871 300.989 Q766.005 301.823 769.431 302.587 L770.89 302.911 Q775.427 303.883 777.325 305.665 Q779.246 307.425 779.246 310.596 Q779.246 314.207 776.376 316.313 Q773.529 318.42 768.529 318.42 Q766.445 318.42 764.177 318.003 Q761.931 317.61 759.431 316.8 L759.431 312.401 Q761.793 313.628 764.084 314.253 Q766.376 314.855 768.621 314.855 Q771.63 314.855 773.251 313.837 Q774.871 312.795 774.871 310.92 Q774.871 309.184 773.691 308.258 Q772.533 307.332 768.575 306.476 L767.093 306.128 Q763.135 305.295 761.376 303.582 Q759.617 301.846 759.617 298.837 Q759.617 295.179 762.209 293.189 Q764.802 291.198 769.57 291.198 Q771.931 291.198 774.015 291.545 Q776.098 291.892 777.857 292.587 Z" fill="#000000" fill-rule="nonzero" fill-opacity="1" /><path clip-path="url(#clip380)" d="M802.556 292.587 L802.556 296.614 Q800.751 295.689 798.806 295.226 Q796.862 294.763 794.778 294.763 Q791.607 294.763 790.01 295.735 Q788.436 296.707 788.436 298.651 Q788.436 300.133 789.57 300.989 Q790.704 301.823 794.13 302.587 L795.589 302.911 Q800.126 303.883 802.024 305.665 Q803.945 307.425 803.945 310.596 Q803.945 314.207 801.075 316.313 Q798.228 318.42 793.228 318.42 Q791.144 318.42 788.876 318.003 Q786.63 317.61 784.13 316.8 L784.13 312.401 Q786.491 313.628 788.783 314.253 Q791.075 314.855 793.32 314.855 Q796.329 314.855 797.95 313.837 Q799.57 312.795 799.57 310.92 Q799.57 309.184 798.39 308.258 Q797.232 307.332 793.274 306.476 L791.792 306.128 Q787.834 305.295 786.075 303.582 Q784.316 301.846 784.316 298.837 Q784.316 295.179 786.908 293.189 Q789.501 291.198 794.269 291.198 Q796.63 291.198 798.714 291.545 Q800.797 291.892 802.556 292.587 Z" fill="#000000" fill-rule="nonzero" fill-opacity="1" /><path clip-path="url(#clip380)" d="M822.51 304.716 Q817.348 304.716 815.357 305.897 Q813.366 307.077 813.366 309.925 Q813.366 312.193 814.848 313.536 Q816.352 314.855 818.922 314.855 Q822.463 314.855 824.593 312.355 Q826.746 309.832 826.746 305.665 L826.746 304.716 L822.51 304.716 M831.005 302.957 L831.005 317.749 L826.746 317.749 L826.746 313.813 Q825.288 316.175 823.112 317.309 Q820.936 318.42 817.788 318.42 Q813.806 318.42 811.445 316.198 Q809.107 313.952 809.107 310.202 Q809.107 305.827 812.024 303.605 Q814.964 301.383 820.774 301.383 L826.746 301.383 L826.746 300.966 Q826.746 298.027 824.801 296.429 Q822.88 294.809 819.385 294.809 Q817.163 294.809 815.056 295.341 Q812.95 295.874 811.005 296.939 L811.005 293.003 Q813.343 292.101 815.542 291.661 Q817.741 291.198 819.825 291.198 Q825.45 291.198 828.227 294.114 Q831.005 297.031 831.005 302.957 Z" fill="#000000" fill-rule="nonzero" fill-opacity="1" /><path clip-path="url(#clip380)" d="M854.801 295.804 Q854.084 295.388 853.227 295.202 Q852.394 294.994 851.375 294.994 Q847.764 294.994 845.82 297.355 Q843.899 299.693 843.899 304.091 L843.899 317.749 L839.616 317.749 L839.616 291.823 L843.899 291.823 L843.899 295.851 Q845.241 293.489 847.394 292.355 Q849.547 291.198 852.625 291.198 Q853.065 291.198 853.598 291.267 Q854.13 291.314 854.778 291.429 L854.801 295.804 Z" fill="#000000" fill-rule="nonzero" fill-opacity="1" /><path clip-path="url(#clip380)" d="M880.403 303.721 L880.403 305.804 L860.82 305.804 Q861.098 310.202 863.459 312.517 Q865.843 314.809 870.079 314.809 Q872.533 314.809 874.824 314.207 Q877.139 313.605 879.408 312.401 L879.408 316.429 Q877.116 317.401 874.709 317.911 Q872.301 318.42 869.824 318.42 Q863.621 318.42 859.986 314.809 Q856.375 311.198 856.375 305.04 Q856.375 298.675 859.801 294.948 Q863.25 291.198 869.084 291.198 Q874.315 291.198 877.347 294.577 Q880.403 297.934 880.403 303.721 M876.144 302.471 Q876.097 298.976 874.176 296.892 Q872.278 294.809 869.13 294.809 Q865.565 294.809 863.412 296.823 Q861.283 298.837 860.959 302.494 L876.144 302.471 Z" fill="#000000" fill-rule="nonzero" fill-opacity="1" /><path clip-path="url(#clip380)" d="M908.945 302.101 L908.945 317.749 L904.685 317.749 L904.685 302.239 Q904.685 298.559 903.25 296.73 Q901.815 294.902 898.945 294.902 Q895.496 294.902 893.505 297.101 Q891.514 299.3 891.514 303.096 L891.514 317.749 L887.232 317.749 L887.232 291.823 L891.514 291.823 L891.514 295.851 Q893.042 293.513 895.102 292.355 Q897.185 291.198 899.894 291.198 Q904.361 291.198 906.653 293.976 Q908.945 296.73 908.945 302.101 Z" fill="#000000" fill-rule="nonzero" fill-opacity="1" /><path clip-path="url(#clip380)" d="M921.653 284.462 L921.653 291.823 L930.426 291.823 L930.426 295.133 L921.653 295.133 L921.653 309.207 Q921.653 312.378 922.509 313.281 Q923.389 314.184 926.051 314.184 L930.426 314.184 L930.426 317.749 L926.051 317.749 Q921.12 317.749 919.245 315.92 Q917.37 314.068 917.37 309.207 L917.37 295.133 L914.245 295.133 L914.245 291.823 L917.37 291.823 L917.37 284.462 L921.653 284.462 Z" fill="#000000" fill-rule="nonzero" fill-opacity="1" /><path clip-path="url(#clip380)" d="M936.028 291.823 L940.287 291.823 L940.287 317.749 L936.028 317.749 L936.028 291.823 M936.028 281.73 L940.287 281.73 L940.287 287.124 L936.028 287.124 L936.028 281.73 Z" fill="#000000" fill-rule="nonzero" fill-opacity="1" /><path clip-path="url(#clip380)" d="M947.046 302.864 L959.523 302.864 L959.523 306.661 L947.046 306.661 L947.046 302.864 Z" fill="#000000" fill-rule="nonzero" fill-opacity="1" /><path clip-path="url(#clip380)" d="M982.879 301.545 Q984.384 302.054 985.796 303.721 Q987.231 305.388 988.666 308.304 L993.412 317.749 L988.389 317.749 L983.967 308.883 Q982.254 305.411 980.634 304.276 Q979.037 303.142 976.259 303.142 L971.166 303.142 L971.166 317.749 L966.491 317.749 L966.491 283.189 L977.046 283.189 Q982.972 283.189 985.889 285.665 Q988.805 288.142 988.805 293.142 Q988.805 296.406 987.277 298.559 Q985.773 300.712 982.879 301.545 M971.166 287.031 L971.166 299.3 L977.046 299.3 Q980.426 299.3 982.139 297.749 Q983.875 296.175 983.875 293.142 Q983.875 290.11 982.139 288.582 Q980.426 287.031 977.046 287.031 L971.166 287.031 Z" fill="#000000" fill-rule="nonzero" fill-opacity="1" /><path clip-path="url(#clip380)" d="M999.245 291.823 L1003.5 291.823 L1003.5 317.749 L999.245 317.749 L999.245 291.823 M999.245 281.73 L1003.5 281.73 L1003.5 287.124 L999.245 287.124 L999.245 281.73 Z" fill="#000000" fill-rule="nonzero" fill-opacity="1" /><path clip-path="url(#clip380)" d="M1028.94 292.587 L1028.94 296.614 Q1027.14 295.689 1025.19 295.226 Q1023.25 294.763 1021.17 294.763 Q1017.99 294.763 1016.4 295.735 Q1014.82 296.707 1014.82 298.651 Q1014.82 300.133 1015.96 300.989 Q1017.09 301.823 1020.52 302.587 L1021.98 302.911 Q1026.51 303.883 1028.41 305.665 Q1030.33 307.425 1030.33 310.596 Q1030.33 314.207 1027.46 316.313 Q1024.62 318.42 1019.62 318.42 Q1017.53 318.42 1015.26 318.003 Q1013.02 317.61 1010.52 316.8 L1010.52 312.401 Q1012.88 313.628 1015.17 314.253 Q1017.46 314.855 1019.71 314.855 Q1022.72 314.855 1024.34 313.837 Q1025.96 312.795 1025.96 310.92 Q1025.96 309.184 1024.78 308.258 Q1023.62 307.332 1019.66 306.476 L1018.18 306.128 Q1014.22 305.295 1012.46 303.582 Q1010.7 301.846 1010.7 298.837 Q1010.7 295.179 1013.3 293.189 Q1015.89 291.198 1020.66 291.198 Q1023.02 291.198 1025.1 291.545 Q1027.18 291.892 1028.94 292.587 Z" fill="#000000" fill-rule="nonzero" fill-opacity="1" /><path clip-path="url(#clip380)" d="M1055.77 292.818 L1055.77 296.8 Q1053.97 295.804 1052.14 295.318 Q1050.33 294.809 1048.48 294.809 Q1044.34 294.809 1042.05 297.448 Q1039.75 300.064 1039.75 304.809 Q1039.75 309.554 1042.05 312.193 Q1044.34 314.809 1048.48 314.809 Q1050.33 314.809 1052.14 314.323 Q1053.97 313.813 1055.77 312.818 L1055.77 316.753 Q1053.99 317.587 1052.07 318.003 Q1050.17 318.42 1048.02 318.42 Q1042.16 318.42 1038.71 314.739 Q1035.26 311.059 1035.26 304.809 Q1035.26 298.466 1038.74 294.832 Q1042.23 291.198 1048.3 291.198 Q1050.26 291.198 1052.14 291.615 Q1054.01 292.008 1055.77 292.818 Z" fill="#000000" fill-rule="nonzero" fill-opacity="1" /><path clip-path="url(#clip380)" d="M1084.73 302.101 L1084.73 317.749 L1080.47 317.749 L1080.47 302.239 Q1080.47 298.559 1079.04 296.73 Q1077.6 294.902 1074.73 294.902 Q1071.28 294.902 1069.29 297.101 Q1067.3 299.3 1067.3 303.096 L1067.3 317.749 L1063.02 317.749 L1063.02 281.73 L1067.3 281.73 L1067.3 295.851 Q1068.83 293.513 1070.89 292.355 Q1072.97 291.198 1075.68 291.198 Q1080.15 291.198 1082.44 293.976 Q1084.73 296.73 1084.73 302.101 Z" fill="#000000" fill-rule="nonzero" fill-opacity="1" /><path clip-path="url(#clip380)" d="M1097.44 284.462 L1097.44 291.823 L1106.21 291.823 L1106.21 295.133 L1097.44 295.133 L1097.44 309.207 Q1097.44 312.378 1098.3 313.281 Q1099.17 314.184 1101.84 314.184 L1106.21 314.184 L1106.21 317.749 L1101.84 317.749 Q1096.91 317.749 1095.03 315.92 Q1093.16 314.068 1093.16 309.207 L1093.16 295.133 L1090.03 295.133 L1090.03 291.823 L1093.16 291.823 L1093.16 284.462 L1097.44 284.462 Z" fill="#000000" fill-rule="nonzero" fill-opacity="1" /><path clip-path="url(#clip380)" d="M1133.99 303.721 L1133.99 305.804 L1114.41 305.804 Q1114.68 310.202 1117.05 312.517 Q1119.43 314.809 1123.67 314.809 Q1126.12 314.809 1128.41 314.207 Q1130.73 313.605 1132.99 312.401 L1132.99 316.429 Q1130.7 317.401 1128.3 317.911 Q1125.89 318.42 1123.41 318.42 Q1117.21 318.42 1113.57 314.809 Q1109.96 311.198 1109.96 305.04 Q1109.96 298.675 1113.39 294.948 Q1116.84 291.198 1122.67 291.198 Q1127.9 291.198 1130.93 294.577 Q1133.99 297.934 1133.99 303.721 M1129.73 302.471 Q1129.68 298.976 1127.76 296.892 Q1125.86 294.809 1122.72 294.809 Q1119.15 294.809 1117 296.823 Q1114.87 298.837 1114.55 302.494 L1129.73 302.471 Z" fill="#000000" fill-rule="nonzero" fill-opacity="1" /><path clip-path="url(#clip380)" d="M1156 295.804 Q1155.29 295.388 1154.43 295.202 Q1153.6 294.994 1152.58 294.994 Q1148.97 294.994 1147.02 297.355 Q1145.1 299.693 1145.1 304.091 L1145.1 317.749 L1140.82 317.749 L1140.82 291.823 L1145.1 291.823 L1145.1 295.851 Q1146.44 293.489 1148.6 292.355 Q1150.75 291.198 1153.83 291.198 Q1154.27 291.198 1154.8 291.267 Q1155.33 291.314 1155.98 291.429 L1156 295.804 Z" fill="#000000" fill-rule="nonzero" fill-opacity="1" /></svg>
